<?xml version="1.0" encoding="utf-8"?>
<!-- Generator: Adobe Illustrator 26.3.1, SVG Export Plug-In . SVG Version: 6.00 Build 0)  -->
<svg version="1.1" id="Layer_1" xmlns="http://www.w3.org/2000/svg" xmlns:xlink="http://www.w3.org/1999/xlink" x="0px" y="0px"
	 viewBox="0 0 1000 1000" style="enable-background:new 0 0 1000 1000;" xml:space="preserve">
<style type="text/css">
	.st0{fill:#FFFFFF;}
	.st1{fill:#3A64DB;}
	.st2{fill:url(#SVGID_1_);}
	.st3{fill:#204DEF;stroke:#204DEF;stroke-miterlimit:10;}
	.st4{fill:#DB0707;stroke:#DB0707;stroke-width:2;stroke-miterlimit:10;}
	.st5{fill:#EA7636;}
	.st6{fill:#D16733;}
	.st7{fill:#E2E6F2;}
	.st8{fill:#FCFCFC;}
	.st9{fill:#517DED;}
	.st10{font-family:'HelveticaNeue-Bold';}
	.st11{font-size:90.4904px;}
	.st12{letter-spacing:3;}
</style>
<g>
	<g>
		<path class="st0" d="M907.5,496.47L522.32,318.63c-11.15-5.04-24.05-5.04-35.49,0l-17.12,6.25l-15.36-8.28V193.43
			c0-5.33-3.38-9.6-8.72-9.6H314.88l-10.09-20.27c-6.7-12.13-22.88-11.44-29.28,0l-9.02,20.27H137.75c-5.33,0-9.74,4.4-9.74,9.73
			v130.87l-24.34,13.29c-9.45,6.26-9.35,22.1,0,27.05l24.34,10.66v98.13l-36.18,20.36c-88.79,46.81-66.89,144.83-1.35,171.74
			L486.81,841.5c11.15,5.04,24.05,5.04,35.49,0l393.04-181.44C980,631.29,990.96,532,907.5,496.47z"/>
	</g>
	<g>
		<path class="st1" d="M159.56,222.49v415.63c0,4.17,3.59,7.56,8.15,7.56h15.13c4.47,0,8.15-3.39,8.15-7.56V256.91
			c0-4.17,3.59-7.56,8.15-7.56h178.04c4.47,0,8.15,3.39,8.15,7.56V683.4c0,4.17,3.59,7.56,8.15,7.56h15.13
			c4.47,0,8.15-3.39,8.15-7.56V222.48c0-4.17-3.59-7.56-8.15-7.56H167.42C163.44,215.02,159.56,218.31,159.56,222.49z"/>
		
			<radialGradient id="SVGID_1_" cx="502.6566" cy="2946.3064" r="339.7675" gradientTransform="matrix(1 0 0 1 0 -2368.3613)" gradientUnits="userSpaceOnUse">
			<stop  offset="0" style="stop-color:#FCCE06"/>
			<stop  offset="0.0312" style="stop-color:#FCCE06"/>
			<stop  offset="0.043" style="stop-color:#FCCD06"/>
			<stop  offset="0.0703" style="stop-color:#FCCC06"/>
			<stop  offset="0.125" style="stop-color:#FCCC06"/>
			<stop  offset="0.1367" style="stop-color:#FCCB07"/>
			<stop  offset="0.1602" style="stop-color:#FCCB07"/>
			<stop  offset="0.1836" style="stop-color:#FCCA07"/>
			<stop  offset="0.207" style="stop-color:#FCC907"/>
			<stop  offset="0.2305" style="stop-color:#FCC907"/>
			<stop  offset="0.2422" style="stop-color:#FBC807"/>
			<stop  offset="0.2656" style="stop-color:#FBC707"/>
			<stop  offset="0.2734" style="stop-color:#FBC707"/>
			<stop  offset="0.2812" style="stop-color:#FBC607"/>
			<stop  offset="0.3008" style="stop-color:#FBC607"/>
			<stop  offset="0.3086" style="stop-color:#FBC607"/>
			<stop  offset="0.3164" style="stop-color:#FBC508"/>
			<stop  offset="0.3242" style="stop-color:#FBC508"/>
			<stop  offset="0.332" style="stop-color:#FBC408"/>
			<stop  offset="0.3516" style="stop-color:#FBC408"/>
			<stop  offset="0.3555" style="stop-color:#FBC308"/>
			<stop  offset="0.3633" style="stop-color:#FBC308"/>
			<stop  offset="0.3711" style="stop-color:#FBC208"/>
			<stop  offset="0.3789" style="stop-color:#FBC208"/>
			<stop  offset="0.3945" style="stop-color:#FBC108"/>
			<stop  offset="0.4102" style="stop-color:#FBC008"/>
			<stop  offset="0.418" style="stop-color:#FBBF09"/>
			<stop  offset="0.4258" style="stop-color:#FBBE09"/>
			<stop  offset="0.4414" style="stop-color:#FBBE09"/>
			<stop  offset="0.457" style="stop-color:#FBBD09"/>
			<stop  offset="0.4648" style="stop-color:#FABC09"/>
			<stop  offset="0.4727" style="stop-color:#FABC09"/>
			<stop  offset="0.4805" style="stop-color:#FABB09"/>
			<stop  offset="0.4844" style="stop-color:#FABA09"/>
			<stop  offset="0.4922" style="stop-color:#FAB909"/>
			<stop  offset="0.5078" style="stop-color:#FAB80A"/>
			<stop  offset="0.5352" style="stop-color:#FAB80A"/>
			<stop  offset="0.5469" style="stop-color:#FAB70A"/>
			<stop  offset="0.5508" style="stop-color:#FAB70A"/>
			<stop  offset="0.5547" style="stop-color:#FAB60A"/>
			<stop  offset="0.5586" style="stop-color:#FAB60A"/>
			<stop  offset="0.5625" style="stop-color:#FAB50A"/>
			<stop  offset="0.5742" style="stop-color:#FAB40A"/>
			<stop  offset="0.5859" style="stop-color:#FAB40A"/>
			<stop  offset="0.5898" style="stop-color:#FAB30B"/>
			<stop  offset="0.6016" style="stop-color:#FAB20B"/>
			<stop  offset="0.6055" style="stop-color:#FAB10B"/>
			<stop  offset="0.6094" style="stop-color:#FAB10B"/>
			<stop  offset="0.6133" style="stop-color:#F9B00B"/>
			<stop  offset="0.625" style="stop-color:#F9AF0B"/>
			<stop  offset="0.6367" style="stop-color:#F9AE0B"/>
			<stop  offset="0.6445" style="stop-color:#F9AE0B"/>
			<stop  offset="0.6484" style="stop-color:#F9AD0C"/>
			<stop  offset="0.6562" style="stop-color:#F9AD0C"/>
			<stop  offset="0.6758" style="stop-color:#F9AC0C"/>
			<stop  offset="0.6836" style="stop-color:#F9AB0C"/>
			<stop  offset="0.6875" style="stop-color:#F9AA0C"/>
			<stop  offset="0.6914" style="stop-color:#F9AA0C"/>
			<stop  offset="0.6992" style="stop-color:#F9A90C"/>
			<stop  offset="0.707" style="stop-color:#F9A80C"/>
			<stop  offset="0.7148" style="stop-color:#F9A80D"/>
			<stop  offset="0.7227" style="stop-color:#F9A70D"/>
			<stop  offset="0.7266" style="stop-color:#F9A60D"/>
			<stop  offset="0.7305" style="stop-color:#F9A50D"/>
			<stop  offset="0.7383" style="stop-color:#F8A40D"/>
			<stop  offset="0.7539" style="stop-color:#F8A30D"/>
			<stop  offset="0.7578" style="stop-color:#F8A30D"/>
			<stop  offset="0.7695" style="stop-color:#F8A20E"/>
			<stop  offset="0.7734" style="stop-color:#F8A10E"/>
			<stop  offset="0.7773" style="stop-color:#F8A10E"/>
			<stop  offset="0.7812" style="stop-color:#F8A00E"/>
			<stop  offset="0.793" style="stop-color:#F8A00E"/>
			<stop  offset="0.7969" style="stop-color:#F89F0E"/>
			<stop  offset="0.8008" style="stop-color:#F89F0E"/>
			<stop  offset="0.8047" style="stop-color:#F89E0E"/>
			<stop  offset="0.8086" style="stop-color:#F89E0E"/>
			<stop  offset="0.8125" style="stop-color:#F89E0E"/>
			<stop  offset="0.8164" style="stop-color:#F89D0E"/>
			<stop  offset="0.8242" style="stop-color:#F89C0F"/>
			<stop  offset="0.832" style="stop-color:#F89B0F"/>
			<stop  offset="0.8398" style="stop-color:#F89A0F"/>
			<stop  offset="0.8477" style="stop-color:#F89A0F"/>
			<stop  offset="0.8516" style="stop-color:#F8990F"/>
			<stop  offset="0.8555" style="stop-color:#F8980F"/>
			<stop  offset="0.8633" style="stop-color:#F7970F"/>
			<stop  offset="0.8711" style="stop-color:#F7960F"/>
			<stop  offset="0.875" style="stop-color:#F79510"/>
			<stop  offset="0.8828" style="stop-color:#F79510"/>
			<stop  offset="0.8867" style="stop-color:#F79410"/>
			<stop  offset="0.8906" style="stop-color:#F79410"/>
			<stop  offset="0.8945" style="stop-color:#F79410"/>
			<stop  offset="0.8984" style="stop-color:#F79310"/>
			<stop  offset="0.9023" style="stop-color:#F79210"/>
			<stop  offset="0.9141" style="stop-color:#F79210"/>
			<stop  offset="0.9219" style="stop-color:#F79110"/>
			<stop  offset="0.9258" style="stop-color:#F79011"/>
			<stop  offset="0.9297" style="stop-color:#F79011"/>
			<stop  offset="0.9336" style="stop-color:#F78F11"/>
			<stop  offset="0.9375" style="stop-color:#F78E11"/>
			<stop  offset="0.9453" style="stop-color:#F78D11"/>
			<stop  offset="0.9492" style="stop-color:#F78D11"/>
			<stop  offset="0.9531" style="stop-color:#F68C11"/>
			<stop  offset="0.957" style="stop-color:#F68C11"/>
			<stop  offset="0.9648" style="stop-color:#F68B11"/>
			<stop  offset="0.9688" style="stop-color:#F68A12"/>
			<stop  offset="0.9766" style="stop-color:#F68912"/>
			<stop  offset="0.9805" style="stop-color:#F68812"/>
			<stop  offset="0.9883" style="stop-color:#F68812"/>
			<stop  offset="0.9922" style="stop-color:#F68712"/>
			<stop  offset="1" style="stop-color:#F68712"/>
		</radialGradient>
		<path class="st2" d="M487.43,796.67L109.52,628.91c-44.12-19.58-44.12-82.43,0-102.01l377.91-167.67c9.8-4.17,20.66-4.17,30.45,0
			l377.91,167.66c44.12,19.58,44.12,82.43,0,102.01L517.88,796.66C508.09,800.84,496.93,800.84,487.43,796.67z"/>
		<path class="st0" d="M493.83,767.87L119.32,601.55c-20.66-9.21-20.66-38.59,0-47.8l374.51-166.31c2.81-1.16,5.92-1.16,8.34,0
			l374.52,166.31c20.66,9.21,20.66,38.59,0,47.8L502.27,767.87C499.75,768.94,496.64,768.94,493.83,767.87z"/>
		<path class="st3" d="M481.78,563.33c-1.61,0.05-3.15,0.11-4.61,0.14c-1.44,0.03-2.86,0.05-4.23,0.07
			c-1.37,0.02-2.72,0.02-4.06,0.02c-1.34,0-2.7,0-4.06,0c-0.81,1.59-1.72,3.44-2.73,5.54c-1.01,2.1-2.07,4.3-3.18,6.61
			c-1.11,2.31-2.21,4.64-3.32,6.98c-1.11,2.35-2.16,4.57-3.15,6.69c-1,2.1-1.9,4.01-2.71,5.7c-0.81,1.7-1.46,3.05-1.96,4.04
			c-0.34,0.72-0.77,1.38-1.26,1.98c-0.49,0.61-1.05,1.13-1.64,1.56c-0.6,0.43-1.2,0.77-1.82,1.01c-0.62,0.24-1.2,0.35-1.72,0.35
			c-0.75,0-1.42-0.18-2-0.56c-0.6-0.38-0.89-0.96-0.89-1.78c0-0.41,0.1-0.88,0.28-1.43c0.18-0.54,0.46-1.17,0.79-1.89l16.49-34.95
			h-2.47c-1.71,0-2.88-0.26-3.5-0.79c-0.62-0.53-0.93-1.15-0.93-1.87c0-0.75,0.39-1.47,1.17-2.17c0.78-0.69,1.92-1.05,3.41-1.05
			h5.52c2.21-4.45,4.43-8.13,6.67-11.02c2.23-2.9,4.41-5.19,6.57-6.87c2.16-1.68,4.25-2.85,6.29-3.5c2.04-0.65,4-0.98,5.86-0.98
			c0.88,0,1.7,0.17,2.5,0.51c0.79,0.34,1.5,0.86,2.1,1.54c0.61,0.69,1.09,1.55,1.47,2.59c0.38,1.05,0.56,2.27,0.56,3.66
			c0,1.33-0.18,2.82-0.56,4.44c-0.1,0.43-0.28,0.8-0.56,1.09c-0.28,0.3-0.6,0.53-0.93,0.73c-0.34,0.18-0.69,0.33-1.03,0.4
			s-0.64,0.12-0.89,0.12c-0.62,0-1.2-0.14-1.72-0.44c-0.52-0.3-0.79-0.76-0.79-1.38c0-0.41,0.02-0.78,0.07-1.13
			c0.04-0.34,0.07-0.69,0.07-1.03c0-1.31-0.24-2.24-0.73-2.81c-0.49-0.56-1.14-0.85-1.94-0.85c-0.96,0-2.09,0.41-3.38,1.26
			s-2.6,1.96-3.92,3.36c-1.33,1.41-2.59,2.99-3.81,4.79c-1.21,1.8-2.21,3.62-2.99,5.48h10.89c0.96,0,1.87,0.02,2.71,0.04
			c0.85,0.03,1.58,0.13,2.22,0.28c0.64,0.15,1.14,0.41,1.5,0.78c0.36,0.36,0.53,0.88,0.53,1.56c0,0.34-0.05,0.69-0.18,1.03
			c-0.13,0.34-0.34,0.66-0.63,0.96c-0.3,0.3-0.7,0.54-1.25,0.75C483.31,563.13,482.62,563.28,481.78,563.33z"/>
		<path class="st3" d="M493.51,555.91c1.18,0,2.45,0.15,3.81,0.47c1.35,0.31,2.61,0.85,3.76,1.59c1.15,0.75,2.11,1.73,2.87,2.97
			c0.77,1.24,1.15,2.75,1.15,4.56c0,0.93-0.13,1.99-0.38,3.2s-0.62,2.45-1.13,3.76c0.31,0.37,0.67,0.64,1.07,0.79
			c0.41,0.15,0.85,0.23,1.31,0.23c0.65,0,1.38-0.18,2.17-0.56c0.79-0.38,1.61-0.86,2.45-1.44c0.85-0.6,1.69-1.26,2.53-2
			c0.85-0.75,1.64-1.5,2.38-2.24c0.75-0.75,1.43-1.45,2.04-2.12c0.61-0.67,1.12-1.25,1.52-1.7c0.22-0.22,0.49-0.33,0.79-0.33
			c0.43,0,0.82,0.23,1.17,0.68c0.34,0.46,0.51,1.08,0.51,1.89c0,0.8-0.24,1.74-0.73,2.81c-0.49,1.06-1.38,2.17-2.69,3.32
			c-0.75,0.8-1.61,1.74-2.57,2.81c-0.96,1.06-1.99,2.06-3.09,2.99c-1.08,0.93-2.23,1.72-3.41,2.38c-1.18,0.65-2.36,0.98-3.54,0.98
			c-0.81,0-1.6-0.13-2.35-0.38c-0.77-0.25-1.53-0.65-2.32-1.21c-1.13,1.74-2.4,3.34-3.83,4.77c-1.43,1.43-3.02,2.67-4.79,3.7
			c-1.76,1.03-3.65,1.83-5.7,2.41c-2.04,0.57-4.22,0.87-6.51,0.87c-0.88,0-1.89-0.17-3.03-0.51c-1.15-0.34-2.25-0.91-3.29-1.7
			c-1.05-0.79-1.92-1.83-2.63-3.11c-0.72-1.28-1.07-2.83-1.07-4.67c0-1.25,0.21-2.74,0.61-4.49c0.41-1.74,1.02-3.54,1.84-5.4
			s1.87-3.7,3.13-5.52c1.26-1.82,2.76-3.46,4.51-4.91c1.74-1.44,3.74-2.62,5.98-3.5C488.29,556.35,490.78,555.91,493.51,555.91z
			 M491.09,564.12c-1.46,0-2.87,0.37-4.23,1.09c-1.35,0.73-2.55,1.7-3.6,2.9c-1.05,1.2-1.89,2.55-2.5,4.06
			c-0.62,1.52-0.93,3.07-0.93,4.65c0,0.6,0.04,1.25,0.14,1.94c0.1,0.69,0.29,1.35,0.59,1.96c0.29,0.61,0.73,1.12,1.28,1.52
			c0.56,0.41,1.31,0.61,2.24,0.61c1.43,0,2.83-0.38,4.18-1.15c1.35-0.77,2.56-1.76,3.62-2.99c1.06-1.24,1.9-2.62,2.53-4.18
			c0.62-1.56,0.93-3.13,0.93-4.73c0-0.62-0.04-1.27-0.12-1.94c-0.08-0.67-0.26-1.29-0.56-1.84c-0.3-0.55-0.73-1.02-1.29-1.38
			C492.82,564.31,492.05,564.12,491.09,564.12z"/>
		<path class="st3" d="M529.12,562.64c1.21-0.75,2.47-1.43,3.76-2.06c1.29-0.62,2.55-1.16,3.76-1.61c1.21-0.44,2.37-0.8,3.48-1.07
			c1.11-0.26,2.09-0.4,2.97-0.4c1.41,0,2.48,0.34,3.25,1.01c0.77,0.67,1.15,1.8,1.15,3.38c0,0.34-0.02,0.7-0.04,1.09
			c-0.03,0.39-0.1,0.8-0.18,1.25c-0.15,0.81-0.62,1.77-1.41,2.85c-0.78,1.08-1.69,2.23-2.73,3.41c-1.05,1.18-2.17,2.37-3.36,3.58
			c-1.2,1.2-2.31,2.31-3.32,3.32c-1.01,1.01-1.85,1.89-2.53,2.63c-0.67,0.75-1.01,1.26-1.01,1.54c0,0.25,0.02,0.41,0.04,0.51
			c0.03,0.1,0.17,0.14,0.41,0.14c1.68-0.72,3.55-1.58,5.64-2.59c2.07-1.01,4.13-2.05,6.19-3.1c2.06-1.05,4.01-2.09,5.84-3.11
			c1.83-1.01,3.39-1.89,4.67-2.63c0.28-0.15,0.57-0.29,0.87-0.4c0.29-0.11,0.57-0.16,0.81-0.16c0.56,0,1.03,0.18,1.41,0.56
			c0.37,0.38,0.56,0.88,0.56,1.5c0,0.72-0.3,1.53-0.91,2.45c-0.61,0.92-1.63,1.89-3.07,2.87c-1.08,0.69-2.32,1.45-3.66,2.31
			c-1.35,0.86-2.77,1.74-4.25,2.67c-1.48,0.92-2.98,1.81-4.49,2.69c-1.51,0.88-2.97,1.65-4.38,2.34s-2.72,1.25-3.94,1.66
			c-1.22,0.41-2.3,0.63-3.2,0.63c-2.16,0-3.76-0.51-4.84-1.54c-1.07-1.03-1.61-2.35-1.61-3.98c0-0.25,0.02-0.43,0.04-0.56
			c0.22-1.37,0.62-2.7,1.21-3.98s1.26-2.49,2-3.64s1.52-2.25,2.34-3.29c0.81-1.05,1.55-2.03,2.22-2.95
			c0.67-0.92,1.22-1.77,1.66-2.55s0.65-1.5,0.65-2.16c0-0.15-0.03-0.31-0.1-0.47c-0.05-0.15-0.21-0.23-0.41-0.23
			c-0.38,0-0.99,0.14-1.84,0.41c-0.86,0.27-1.77,0.65-2.73,1.13c-0.96,0.47-1.89,1.01-2.75,1.61c-0.88,0.61-1.5,1.25-1.87,1.94
			c-0.5,0.88-1.07,1.98-1.72,3.32c-0.65,1.33-1.33,2.74-2.04,4.2c-0.69,1.46-1.38,2.9-2.04,4.35c-0.65,1.43-1.21,2.67-1.69,3.7
			c-0.38,0.9-0.87,1.71-1.47,2.43c-0.61,0.72-1.27,1.33-1.98,1.82c-0.72,0.5-1.44,0.89-2.19,1.17c-0.75,0.28-1.43,0.41-2.06,0.41
			c-0.72,0-1.29-0.18-1.7-0.56c-0.41-0.37-0.63-0.98-0.63-1.82c0-0.34,0.05-0.77,0.16-1.29c0.11-0.51,0.33-1.08,0.68-1.7
			c0.56-1.06,1.13-2.21,1.7-3.46c0.59-1.25,1.25-2.67,1.98-4.28c0.75-1.6,1.61-3.45,2.59-5.52c0.98-2.07,2.15-4.47,3.48-7.17
			c-0.43-0.38-0.8-0.83-1.09-1.38c-0.3-0.54-0.44-1.22-0.44-2.04c0-0.75,0.15-1.4,0.47-1.94c0.31-0.54,0.73-0.99,1.26-1.33
			c0.53-0.34,1.15-0.6,1.84-0.78c0.69-0.17,1.44-0.25,2.22-0.25c0.8,0,1.61,0.07,2.43,0.22c0.81,0.14,1.53,0.35,2.17,0.63
			c0.64,0.28,1.16,0.62,1.56,1.03c0.41,0.41,0.61,0.88,0.61,1.41c0,0.1-0.03,0.23-0.1,0.38c-0.07,0.15-0.14,0.33-0.22,0.51
			c-0.08,0.18-0.14,0.36-0.22,0.51c-0.07,0.15-0.1,0.28-0.1,0.38c0,0.05,0.02,0.1,0.04,0.1h0.04L529.12,562.64z"/>
		<path class="st4" d="M348.32,683.19l-20.89-68.27h14.57l14.39,47.99h0.18l14.57-47.99h14.66l-21.45,68.26L348.32,683.19
			L348.32,683.19z"/>
		<path class="st4" d="M444.43,614.92v12.63h-34.12v14.62h31.31v11.66h-31.31v16.73h34.84v12.61H396.1v-68.26L444.43,614.92
			L444.43,614.92z"/>
		<path class="st4" d="M497.82,682.66c-3.08,1.37-6.19,2.06-9.32,2.06c-4.94,0-9.4-0.91-13.34-2.72c-3.96-1.81-7.28-4.31-10-7.51
			c-2.72-3.19-4.8-6.94-6.24-11.23c-1.44-4.29-2.17-8.94-2.17-13.9c0-5.1,0.73-9.83,2.17-14.2c1.44-4.37,3.53-8.17,6.24-11.42
			c2.72-3.25,6.05-5.8,10-7.65c3.94-1.85,8.4-2.77,13.34-2.77c3.32,0,6.52,0.52,9.63,1.58c3.1,1.05,5.92,2.6,8.42,4.64
			c2.5,2.04,4.56,4.56,6.2,7.55c1.63,2.99,2.62,6.44,2.99,10.33h-13.58c-0.85-3.83-2.47-6.69-4.89-8.61
			c-2.42-1.91-5.34-2.87-8.78-2.87c-3.2,0-5.92,0.65-8.15,1.96c-2.23,1.31-4.04,3.06-5.43,5.26c-1.39,2.2-2.4,4.7-3.03,7.51
			c-0.63,2.81-0.95,5.7-0.95,8.7c0,2.87,0.33,5.66,0.95,8.37c0.63,2.71,1.64,5.15,3.03,7.32c1.39,2.17,3.2,3.91,5.43,5.21
			c2.23,1.31,4.94,1.96,8.15,1.96c4.7,0,8.34-1.26,10.91-3.77c2.56-2.51,4.05-6.17,4.48-10.95H489.6v-11.2h27.15v36.91h-9.05
			l-1.44-7.75C503.7,678.88,500.89,681.29,497.82,682.66z"/>
		<path class="st4" d="M565.23,614.92l24.17,68.26h-14.75l-4.89-15.21H545.6l-5.07,15.21h-14.29l24.43-68.26H565.23z M566.05,656.8
			l-8.15-25.05h-0.18l-8.42,25.05H566.05z"/>
		<path class="st4" d="M610.65,666.36c0.78,1.59,1.82,2.88,3.12,3.87c1.3,0.99,2.82,1.71,4.56,2.2c1.74,0.48,3.55,0.72,5.43,0.72
			c1.27,0,2.62-0.11,4.07-0.34c1.44-0.23,2.81-0.65,4.07-1.29c1.27-0.64,2.32-1.52,3.18-2.62c0.85-1.12,1.27-2.54,1.27-4.26
			c0-1.85-0.56-3.35-1.68-4.49c-1.12-1.15-2.58-2.1-4.39-2.87c-1.81-0.77-3.86-1.43-6.16-2c-2.29-0.57-4.62-1.21-6.96-1.91
			c-2.42-0.64-4.77-1.42-7.06-2.35c-2.29-0.92-4.35-2.11-6.14-3.59c-1.81-1.46-3.27-3.29-4.39-5.49c-1.12-2.2-1.68-4.86-1.68-7.98
			c0-3.5,0.7-6.55,2.12-9.14c1.42-2.58,3.27-4.74,5.57-6.45c2.29-1.72,4.89-2.99,7.78-3.83c2.9-0.82,5.79-1.25,8.69-1.25
			c3.37,0,6.62,0.4,9.72,1.19c3.1,0.79,5.86,2.08,8.28,3.87c2.42,1.79,4.32,4.06,5.74,6.84c1.42,2.77,2.12,6.13,2.12,10.09h-13.77
			c-0.13-2.04-0.53-3.73-1.22-5.07c-0.69-1.33-1.61-2.38-2.76-3.15c-1.15-0.77-2.46-1.31-3.93-1.63c-1.48-0.33-3.09-0.48-4.84-0.48
			c-1.15,0-2.3,0.13-3.45,0.38c-1.15,0.25-2.19,0.69-3.12,1.33c-0.93,0.64-1.7,1.43-2.31,2.38c-0.6,0.96-0.9,2.17-0.9,3.64
			c0,1.33,0.24,2.43,0.73,3.25c0.49,0.83,1.43,1.59,2.85,2.3c1.42,0.69,3.37,1.41,5.88,2.1c2.5,0.69,5.78,1.59,9.82,2.68
			c1.2,0.25,2.88,0.72,5.03,1.39c2.15,0.67,4.27,1.73,6.38,3.2c2.11,1.46,3.93,3.42,5.48,5.87c1.54,2.45,2.31,5.59,2.31,9.42
			c0,3.12-0.57,6.03-1.71,8.7c-1.15,2.68-2.85,4.99-5.12,6.94c-2.25,1.95-5.07,3.46-8.42,4.54c-3.35,1.08-7.23,1.63-11.63,1.63
			c-3.55,0-7.01-0.47-10.36-1.39c-3.35-0.92-6.31-2.37-8.88-4.36c-2.56-1.98-4.6-4.49-6.11-7.55c-1.52-3.07-2.23-6.69-2.17-10.9
			h13.75C609.48,662.83,609.87,664.77,610.65,666.36z"/>
		<path class="st5" d="M451.07,348.55l-111.81-23.76l24.05-45.29c0.88-1.35-0.88-2.81-1.94-1.94l-45.29,24.05L292.32,189.8
			c-0.29-1.65-2.53-1.65-2.81,0l-23.76,111.81l-45.29-24.05c-1.35-0.88-2.81,0.88-1.94,1.94l24.05,45.29l-111.81,23.76
			c-1.65,0.29-1.65,2.53,0,2.81l111.81,23.76l-24.05,45.29c-0.88,1.35,0.88,2.81,1.94,1.94l45.29-24.05l23.76,111.81
			c0.29,1.65,2.53,1.65,2.81,0l23.76-111.81l45.29,24.05c1.35,0.88,2.81-0.88,1.94-1.94l-24.05-45.29l111.81-23.76
			C452.81,351.08,452.81,348.84,451.07,348.55z"/>
		<polygon class="st6" points="291.25,196.5 291.25,350 311.33,306.08 		"/>
		<polygon class="st6" points="444.66,350 291.25,350 334.79,370.08 		"/>
		<polygon class="st6" points="358.84,283.19 291.25,350 336.83,323.72 		"/>
		<polygon class="st6" points="224.43,282.03 291.25,350 264.68,304.14 		"/>
		<polygon class="st6" points="358.07,417.89 291.25,350 317.53,395.78 		"/>
		<polygon class="st6" points="291.25,503.42 291.25,350 271.08,393.55 		"/>
		<polygon class="st6" points="137.74,350 291.25,350 247.32,329.83 		"/>
		<polygon class="st6" points="223.27,416.82 291.25,350 245.38,376.28 		"/>
		<circle class="st7" cx="280.29" cy="465.4" r="69.63"/>
		<circle class="st8" cx="280.29" cy="465.4" r="51.68"/>
		<circle class="st7" cx="723.95" cy="465.4" r="69.63"/>
		<circle class="st8" cx="723.95" cy="465.4" r="51.68"/>
		<circle class="st7" cx="576.07" cy="465.4" r="69.63"/>
		<circle class="st8" cx="576.07" cy="465.4" r="51.68"/>
		<circle class="st7" cx="428.18" cy="465.4" r="69.63"/>
		<circle class="st8" cx="428.18" cy="465.4" r="51.68"/>
		<text transform="matrix(1 0 0 1 247.6101 497.259)" class="st9 st10 st11 st12">C</text>
		<text transform="matrix(1 0 0 1 392.6872 498.7033)" class="st9 st10 st11 st12">O</text>
		<text transform="matrix(1 0 0 1 546.8054 497.259)" class="st9 st10 st11 st12">D</text>
		<text transform="matrix(1 0 0 1 692.2117 497.259)" class="st9 st10 st11 st12">E</text>
	</g>
</g>
</svg>
