<?xml version="1.0" encoding="utf-8"?>
<!-- Generator: Adobe Illustrator 26.3.1, SVG Export Plug-In . SVG Version: 6.00 Build 0)  -->
<svg version="1.1" id="Layer_1" xmlns="http://www.w3.org/2000/svg" xmlns:xlink="http://www.w3.org/1999/xlink" x="0px" y="0px"
	 viewBox="0 0 1000 1000" style="enable-background:new 0 0 1000 1000;" xml:space="preserve">
<style type="text/css">
	.st0{fill:#FFFFFF;}
	.st1{fill:#3A64DB;}
	.st2{fill:url(#SVGID_1_);}
	.st3{fill:#204DEF;}
	.st4{fill:#DB0707;}
	.st5{fill:#EA7636;}
	.st6{fill:#D16733;}
	.st7{fill:#E2E6F2;}
	.st8{fill:#517DED;}
	.st9{fill:url(#SVGID_00000039837198356631744510000002571033881058620804_);}
	.st10{fill:#204DEF;stroke:#204DEF;stroke-miterlimit:10;}
	.st11{fill:#DB0707;stroke:#DB0707;stroke-width:2;stroke-miterlimit:10;}
	.st12{fill:#FCFCFC;}
</style>
<path d="M191.1,350.2v140.2c-4.8,2-3.4,1.4-9,3.8l-14.8,6.3c-3.2,1.3-1.5,0.7-7.7,3.3V343.5C170.7,345.8,180.6,347.9,191.1,350.2z
	 M167.5,200.9c-4,0.1-7.9,3.4-7.9,7.6v119.9c10.5-2.2,20.9-4.4,31.4-6.7v-78.8c0-4.2,3.6-7.6,8.2-7.6H277
	c2.8-13.1,4.2-19.7,7.3-34.4H167.5z M416.9,208.5c0-4.2-3.6-7.6-8.2-7.6h-111c3.2,15.3,3.9,18.2,7.4,35l72.1-0.5
	c4.5,0,8.1,3.4,8.1,7.6v77.7c11,2.3,22.1,4.7,31.4,6.7V208.5z M385.4,351.3v55.5c0,0,3-1.4,7.8-3.6l13.4-6.3
	c5.1-2.4,5.1-2.4,10.2-4.8v-47.5C409.6,346.2,395.9,349.1,385.4,351.3z M348.9,453l12.2-5.9c3.8-13.7,10.5-22.8,15.5-28.3
	c0,0,12.1-14.8,33.9-20.5c21.6-5.6,38.9,0.2,48.4,4.7c0,0,3.9-1.6,9.3-4l29.8-11.5c2.8-1.2,5.9-1.2,8.3,0l35.4,17.5
	c19.4-11.3,39.6-9.2,42.8-8.6c7.5,0.9,24.3,4.2,39,18c2.6,2.5,15.7,13.9,20.7,36.2c3.7,1.6,10.9,4.9,10.9,4.9
	c1.8-12.4,6.6-22.3,11.9-30L518,359.2c-9.8-4.2-20.7-4.2-30.4,0l-148.2,69.1C344.8,437.1,347.3,444.5,348.9,453z M895.9,526.9
	L792,480.8c-2.9,11.8-7,20-14.2,29l99.1,44c20.7,9.2,20.7,38.6,0,47.8L502.4,767.9c-2.5,1.1-5.6,1.1-8.4,0L119.4,601.5
	c-20.7-9.2-20.7-38.6,0-47.8L224.6,507c-5.1-6.8-9.4-15.1-12-25.8l-107.9,45.7c-44.1,19.6-44.1,82.4,0,102l379.9,167.8
	c9.5,4.2,20.7,4.2,30.4,0l380.9-167.8C940,609.3,940,546.5,895.9,526.9z M484,562.9c0.5-0.2,1-0.5,1.2-0.8c0.3-0.3,0.5-0.6,0.6-1
	s0.2-0.7,0.2-1c0-0.7-0.2-1.2-0.5-1.6c-0.4-0.4-0.9-0.6-1.5-0.8s-1.4-0.2-2.2-0.3c-0.8,0-1.8,0-2.7,0h-10.9c0.8-1.9,1.8-3.7,3-5.5
	c1.2-1.8,2.5-3.4,3.8-4.8c1.3-1.4,2.6-2.5,3.9-3.4s2.4-1.3,3.4-1.3c0.8,0,1.5,0.3,1.9,0.8c0.5,0.6,0.7,1.5,0.7,2.8
	c0,0.3,0,0.7-0.1,1c-0.1,0.3-0.1,0.7-0.1,1.1c0,0.6,0.3,1.1,0.8,1.4s1.1,0.4,1.7,0.4c0.2,0,0.6,0,0.9-0.1s0.7-0.2,1-0.4
	c0.3-0.2,0.6-0.4,0.9-0.7c0.3-0.3,0.5-0.7,0.6-1.1c0.4-1.6,0.6-3.1,0.6-4.4c0-1.4-0.2-2.6-0.6-3.7c-0.4-1-0.9-1.9-1.5-2.6
	c-0.6-0.7-1.3-1.2-2.1-1.5c-0.8-0.3-1.6-0.5-2.5-0.5c-1.9,0-3.8,0.3-5.9,1s-4.1,1.8-6.3,3.5s-4.3,4-6.6,6.9c-2.2,2.9-4.5,6.6-6.7,11
	h-5.5c-1.5,0-2.6,0.4-3.4,1c-0.8,0.7-1.2,1.4-1.2,2.2c0,0.7,0.3,1.3,0.9,1.9c0.6,0.5,1.8,0.8,3.5,0.8h2.5l-16.5,35
	c-0.3,0.7-0.6,1.4-0.8,1.9c-0.2,0.5-0.3,1-0.3,1.4c0,0.8,0.3,1.4,0.9,1.8c0.6,0.4,1.2,0.6,2,0.6c0.5,0,1.1-0.1,1.7-0.3
	s1.2-0.6,1.8-1c0.6-0.4,1.2-1,1.6-1.6c0.5-0.6,0.9-1.3,1.3-2c0.5-1,1.1-2.3,2-4c0.8-1.7,1.7-3.6,2.7-5.7c1-2.1,2-4.3,3.1-6.7
	c1.1-2.3,2.2-4.7,3.3-7s2.2-4.5,3.2-6.6s1.9-3.9,2.7-5.5c1.4,0,2.7,0,4.1,0s2.7,0,4.1,0c1.4,0,2.8,0,4.2-0.1c1.5,0,3-0.1,4.6-0.1
	C482.7,563.3,483.4,563.1,484,562.9z M443.3,604.1c0.6-0.2,1.3-0.6,1.9-1.1c0.7-0.5,1.2-1,1.7-1.6c0.5-0.7,1-1.4,1.3-2.1
	c0.5-1,1.2-2.3,2-4c0.5-1,1-2.1,1.5-3.2l1.2-2.5c0.9-2,1.9-4.1,2.9-6.2l0.8-1.6c0.9-1.9,1.8-3.9,2.8-5.8l3.2-6.6
	c1-2,1.8-3.8,2.6-5.3h3.8c1.3,0,2.7,0,4.1,0l0.6,0c1.2,0,2.4,0,3.7-0.1c1,0,2-0.1,3.1-0.1l1.5,0l0,0c0.9-0.1,1.6-0.2,2.3-0.5
	c0.6-0.2,1.1-0.5,1.4-0.9c0.3-0.3,0.6-0.7,0.7-1.1c0.1-0.4,0.2-0.8,0.2-1.2c0-0.8-0.2-1.5-0.7-1.9c-0.4-0.4-1-0.7-1.7-0.9
	c-0.7-0.2-1.5-0.3-2.3-0.3c-0.8,0-1.8,0-2.7,0H469c0.7-1.6,1.6-3.1,2.6-4.7c1.2-1.8,2.4-3.3,3.8-4.7c1.3-1.3,2.5-2.4,3.8-3.3
	c2.1-1.4,3.7-1.6,4.7-0.5c0.4,0.5,0.6,1.3,0.6,2.5c0,0.3,0,0.7-0.1,1c-0.1,0.4-0.1,0.7-0.1,1.2c0,0.8,0.4,1.4,1,1.8
	c0.6,0.3,1.2,0.5,2,0.5c0.3,0,0.7-0.1,1-0.1c0.4-0.1,0.7-0.2,1.2-0.5c0.4-0.3,0.8-0.5,1-0.8c0.3-0.3,0.6-0.8,0.7-1.3
	c0.4-1.6,0.6-3.2,0.6-4.6c0-1.5-0.2-2.7-0.6-3.8c-0.4-1.1-0.9-2-1.6-2.7c-0.7-0.7-1.4-1.3-2.3-1.7c-0.9-0.4-1.8-0.5-2.7-0.5
	c-1.9,0-3.9,0.3-6,1c-2.1,0.7-4.2,1.9-6.4,3.6c-2.2,1.7-4.4,4-6.7,7c-2.2,2.8-4.4,6.5-6.6,10.8h-5.2c-1.6,0-2.9,0.4-3.7,1.2
	c-0.9,0.8-1.3,1.7-1.3,2.5c0,0.9,0.4,1.6,1.1,2.2c0.7,0.6,2,0.9,3.8,0.9h1.7l-16.2,34.2c-0.3,0.7-0.6,1.4-0.8,1.9
	c-0.2,0.6-0.3,1.1-0.3,1.6c0,1,0.4,1.7,1.1,2.2c0.7,0.4,1.4,0.6,2.3,0.6C442.1,604.5,442.7,604.4,443.3,604.1z M459.6,558l0.1-0.3
	c2.2-4.4,4.4-8.1,6.6-10.9c2.2-2.9,4.4-5.1,6.5-6.8c2.1-1.6,4.2-2.8,6.1-3.4c2-0.6,3.9-1,5.7-1c0.8,0,1.6,0.2,2.3,0.5
	c0.7,0.3,1.4,0.8,1.9,1.4c0.6,0.6,1,1.4,1.4,2.4c0.4,1,0.5,2.1,0.5,3.5c0,1.3-0.2,2.8-0.5,4.3c-0.1,0.4-0.2,0.6-0.4,0.9
	c-0.2,0.2-0.5,0.4-0.8,0.6c-0.3,0.2-0.6,0.3-0.9,0.4c-0.2,0.1-0.6,0.1-0.8,0.1c-0.5,0-1-0.1-1.5-0.4c-0.4-0.2-0.5-0.5-0.5-0.9
	c0-0.4,0-0.8,0.1-1.1c0-0.4,0.1-0.7,0.1-1.1c0-1.4-0.3-2.5-0.9-3.1c-1.3-1.4-3.4-1.4-6,0.3c-1.3,0.9-2.7,2-4,3.4
	c-1.4,1.4-2.6,3-3.9,4.9c-1.2,1.8-2.3,3.7-3,5.6l-0.3,0.7h11.6c1,0,1.9,0,2.7,0c0.8,0,1.5,0.1,2.1,0.3c0.5,0.1,1,0.3,1.3,0.6
	c0.3,0.3,0.4,0.7,0.4,1.2c0,0.3,0,0.6-0.1,0.9c-0.1,0.3-0.3,0.5-0.5,0.8c-0.2,0.2-0.6,0.5-1.1,0.6c-0.6,0.2-1.2,0.4-2,0.4l-1.5,0
	c-1.1,0-2.1,0.1-3.1,0.1c-1.2,0-2.5,0-3.6,0.1l-0.6,0c-1.4,0-2.7,0-4,0c0,0,0,0,0,0h-4.4l-0.1,0.3c-0.8,1.6-1.7,3.4-2.7,5.5
	l-3.2,6.6c-0.9,1.9-1.8,3.9-2.8,5.8l-0.8,1.6c-1,2.2-2,4.3-2.9,6.2l-1.2,2.5c-0.5,1.2-1.1,2.2-1.5,3.2c-0.8,1.7-1.5,3-2,4
	c-0.3,0.6-0.7,1.3-1.2,1.9c-0.4,0.6-1,1-1.5,1.5c-0.6,0.4-1.1,0.7-1.7,1c-1.3,0.5-2.4,0.4-3.3-0.2c-0.5-0.3-0.7-0.7-0.7-1.4
	c0-0.3,0.1-0.8,0.3-1.3c0.2-0.5,0.5-1.2,0.8-1.8l16.8-35.7h-3.3c-2,0-2.8-0.4-3.2-0.7c-0.5-0.4-0.8-0.9-0.8-1.5c0-0.6,0.3-1.2,1-1.8
	c0.7-0.6,1.7-0.9,3.1-0.9H459.6z M486.2,557.3c-2.2,0.9-4.2,2.1-6,3.5c-1.8,1.4-3.2,3.1-4.5,4.9s-2.3,3.7-3.1,5.5s-1.4,3.7-1.8,5.4
	c-0.4,1.8-0.6,3.2-0.6,4.5c0,1.8,0.4,3.4,1.1,4.7c0.7,1.3,1.6,2.3,2.6,3.1c1,0.8,2.1,1.4,3.3,1.7c1.1,0.3,2.1,0.5,3,0.5
	c2.3,0,4.5-0.3,6.5-0.9c2.1-0.6,3.9-1.4,5.7-2.4c1.8-1,3.4-2.3,4.8-3.7s2.7-3,3.8-4.8c0.8,0.6,1.6,1,2.3,1.2
	c0.8,0.2,1.5,0.4,2.4,0.4c1.2,0,2.4-0.3,3.5-1c1.2-0.7,2.3-1.5,3.4-2.4c1.1-0.9,2.1-1.9,3.1-3c1-1.1,1.8-2,2.6-2.8
	c1.3-1.2,2.2-2.3,2.7-3.3c0.5-1.1,0.7-2,0.7-2.8c0-0.8-0.2-1.4-0.5-1.9c-0.3-0.5-0.7-0.7-1.2-0.7c-0.3,0-0.6,0.1-0.8,0.3
	c-0.4,0.5-0.9,1-1.5,1.7s-1.3,1.4-2,2.1c-0.7,0.7-1.5,1.5-2.4,2.2c-0.8,0.7-1.7,1.4-2.5,2c-0.8,0.6-1.7,1.1-2.5,1.4
	s-1.5,0.6-2.2,0.6c-0.5,0-0.9-0.1-1.3-0.2c-0.4-0.1-0.8-0.4-1.1-0.8c0.5-1.3,0.9-2.5,1.1-3.8s0.4-2.3,0.4-3.2c0-1.8-0.4-3.3-1.1-4.6
	c-0.8-1.2-1.7-2.2-2.9-3c-1.2-0.7-2.4-1.3-3.8-1.6c-1.4-0.3-2.6-0.5-3.8-0.5C490.9,555.9,488.4,556.3,486.2,557.3z M493.5,564.6
	c0.6,0.4,1,0.8,1.3,1.4c0.3,0.6,0.5,1.2,0.6,1.8s0.1,1.3,0.1,1.9c0,1.6-0.3,3.2-0.9,4.7c-0.6,1.6-1.5,2.9-2.5,4.2
	c-1.1,1.2-2.3,2.2-3.6,3s-2.8,1.2-4.2,1.2c-0.9,0-1.7-0.2-2.2-0.6c-0.5-0.4-1-0.9-1.3-1.5c-0.3-0.6-0.5-1.3-0.6-2s-0.1-1.3-0.1-1.9
	c0-1.6,0.3-3.1,0.9-4.7c0.6-1.5,1.5-2.9,2.5-4.1c1.1-1.2,2.2-2.2,3.6-2.9c1.4-0.7,2.8-1.1,4.2-1.1
	C492.2,564.1,492.9,564.3,493.5,564.6z M486.8,590.7c2.1-0.6,4-1.4,5.8-2.5c1.8-1,3.4-2.3,4.9-3.8c1.3-1.3,2.5-2.8,3.6-4.4
	c0.7,0.4,1.4,0.8,2,1c2,0.7,4.2,0.5,6.3-0.6c1.3-0.7,2.4-1.5,3.5-2.4c1.1-0.9,2.2-1.9,3.1-3c1-1.1,1.8-2,2.5-2.8
	c1.3-1.2,2.3-2.4,2.8-3.5c0.5-1.1,0.8-2.1,0.8-3c0-0.9-0.2-1.6-0.6-2.2c-0.8-1-2-1.2-2.7-0.4l-0.3,0.3c-0.3,0.4-0.8,0.9-1.2,1.4
	c-0.5,0.6-1.2,1.3-2,2.1c-0.8,0.8-1.6,1.5-2.4,2.2c-0.8,0.7-1.6,1.4-2.5,2c-0.8,0.6-1.6,1-2.4,1.4c-1.2,0.6-2.2,0.6-3.1,0.3
	c-0.2-0.1-0.5-0.2-0.7-0.4c0.5-1.2,0.8-2.4,1-3.5c0.3-1.3,0.4-2.4,0.4-3.3c0-1.9-0.4-3.5-1.2-4.8c-0.8-1.3-1.8-2.3-3-3.1
	c-1.2-0.8-2.5-1.3-3.9-1.7c-1.4-0.3-2.7-0.5-3.9-0.5c-2.8,0-5.4,0.5-7.6,1.4c-2.3,0.9-4.3,2.1-6.1,3.6c-1.8,1.5-3.3,3.1-4.6,5
	c-1.3,1.9-2.4,3.8-3.2,5.6c-0.8,1.9-1.5,3.7-1.9,5.5c-0.4,1.8-0.6,3.3-0.6,4.6c0,2,0.4,3.6,1.1,4.9c0.7,1.4,1.7,2.4,2.8,3.3
	c1.1,0.8,2.3,1.4,3.5,1.8c1.2,0.4,2.2,0.5,3.2,0.5C482.4,591.6,484.7,591.3,486.8,590.7z M497.3,556.9c1.3,0.3,2.5,0.8,3.6,1.5
	c1.1,0.7,2,1.7,2.7,2.8c0.7,1.2,1.1,2.6,1.1,4.3c0,0.9-0.1,1.9-0.4,3.1c-0.2,1.2-0.6,2.4-1.1,3.7l-0.1,0.3l0.2,0.2
	c0.4,0.4,0.8,0.8,1.3,0.9c1.2,0.4,2.4,0.3,3.9-0.3c0.8-0.4,1.7-0.9,2.5-1.5c0.9-0.6,1.7-1.3,2.6-2c0.8-0.7,1.6-1.5,2.4-2.3
	c0.8-0.8,1.5-1.5,2.1-2.1c0.5-0.5,0.9-1,1.2-1.4l0.3-0.3c0.3-0.3,0.8-0.2,1.2,0.3c0.3,0.4,0.4,0.9,0.4,1.6c0,0.7-0.2,1.6-0.7,2.6
	c-0.5,1-1.3,2.1-2.6,3.2c-0.8,0.8-1.6,1.7-2.6,2.8c-1,1.1-2,2-3,2.9c-1,0.9-2.1,1.7-3.3,2.3c-1.9,1-3.8,1.1-5.5,0.6
	c-0.7-0.2-1.4-0.6-2.2-1.1l-0.4-0.3l-0.3,0.4c-1.1,1.8-2.4,3.3-3.8,4.7c-1.4,1.4-3,2.6-4.7,3.6c-1.7,1-3.6,1.8-5.6,2.4
	c-2,0.6-4.2,0.9-6.4,0.9c-0.8,0-1.8-0.2-2.9-0.5c-1.1-0.3-2.1-0.9-3.1-1.6c-1-0.7-1.8-1.7-2.5-3c-0.7-1.2-1-2.7-1-4.4
	c0-1.2,0.2-2.6,0.6-4.4c0.4-1.7,1-3.5,1.8-5.3c0.8-1.8,1.8-3.6,3.1-5.4c1.2-1.8,2.7-3.4,4.4-4.8c1.7-1.4,3.7-2.6,5.9-3.4
	c2.1-0.9,4.5-1.3,7.3-1.3C494.8,556.4,496,556.6,497.3,556.9z M488.6,582.1c1.4-0.8,2.7-1.8,3.8-3.1c1.1-1.3,2-2.7,2.6-4.3
	c0.6-1.6,1-3.3,1-4.9c0-0.6,0-1.3-0.1-2c-0.1-0.8-0.3-1.4-0.6-2c-0.3-0.6-0.8-1.2-1.5-1.6c-0.6-0.4-1.5-0.6-2.5-0.6
	c-1.5,0-3,0.4-4.5,1.2c-1.4,0.8-2.6,1.8-3.7,3c-1.1,1.3-2,2.7-2.6,4.2c-0.6,1.6-1,3.2-1,4.8c0,0.7,0,1.3,0.1,2
	c0.1,0.8,0.3,1.5,0.6,2.1c0.3,0.7,0.8,1.2,1.4,1.7c0.6,0.5,1.5,0.7,2.5,0.7C485.7,583.3,487.2,582.9,488.6,582.1z M493.2,565.1
	c0.5,0.3,0.9,0.7,1.1,1.2c0.3,0.5,0.4,1,0.5,1.7c0.1,0.6,0.1,1.3,0.1,1.9c0,1.5-0.3,3-0.9,4.5c-0.6,1.5-1.4,2.8-2.4,4
	c-1,1.2-2.2,2.1-3.5,2.9c-1.3,0.7-2.6,1.1-3.9,1.1c-0.8,0-1.5-0.2-1.9-0.5c-0.5-0.4-0.9-0.8-1.1-1.3c-0.3-0.5-0.4-1.1-0.5-1.8
	c-0.1-0.6-0.1-1.2-0.1-1.9c0-1.5,0.3-3,0.9-4.5c0.6-1.4,1.4-2.7,2.4-3.9c1-1.2,2.2-2.1,3.5-2.8c1.3-0.7,2.6-1,4-1
	C492,564.6,492.7,564.8,493.2,565.1z M529.1,562.7L529.1,562.7C529,562.7,529,562.6,529.1,562.7c-0.1-0.2,0-0.3,0-0.5
	c0.1-0.2,0.1-0.3,0.2-0.5c0.1-0.2,0.1-0.4,0.2-0.5c0.1-0.2,0.1-0.3,0.1-0.4c0-0.5-0.2-1-0.6-1.4c-0.4-0.4-0.9-0.8-1.6-1
	c-0.6-0.3-1.4-0.5-2.2-0.6c-0.8-0.1-1.6-0.2-2.4-0.2c-0.8,0-1.5,0.1-2.2,0.2c-0.7,0.2-1.3,0.4-1.8,0.8s-1,0.8-1.3,1.3
	c-0.3,0.5-0.5,1.2-0.5,1.9c0,0.8,0.1,1.5,0.4,2c0.3,0.5,0.7,1,1.1,1.4c-1.3,2.7-2.5,5.1-3.5,7.2c-1,2.1-1.8,3.9-2.6,5.5
	c-0.7,1.6-1.4,3-2,4.3c-0.6,1.2-1.1,2.4-1.7,3.5c-0.4,0.6-0.6,1.2-0.7,1.7c-0.1,0.5-0.2,0.9-0.2,1.3c0,0.8,0.2,1.5,0.6,1.8
	c0.4,0.4,1,0.6,1.7,0.6c0.6,0,1.3-0.1,2.1-0.4c0.8-0.3,1.5-0.7,2.2-1.2c0.7-0.5,1.4-1.1,2-1.8c0.6-0.7,1.1-1.5,1.5-2.4
	c0.5-1,1-2.3,1.7-3.7c0.7-1.4,1.3-2.9,2-4.3c0.7-1.5,1.4-2.9,2-4.2c0.6-1.3,1.2-2.4,1.7-3.3c0.4-0.7,1-1.3,1.9-1.9
	c0.9-0.6,1.8-1.1,2.8-1.6c1-0.5,1.9-0.9,2.7-1.1c0.9-0.3,1.5-0.4,1.8-0.4c0.2,0,0.4,0.1,0.4,0.2c0.1,0.2,0.1,0.3,0.1,0.5
	c0,0.7-0.2,1.4-0.7,2.2s-1,1.6-1.7,2.5s-1.4,1.9-2.2,3c-0.8,1-1.6,2.1-2.3,3.3s-1.4,2.4-2,3.6s-1,2.6-1.2,4c0,0.1,0,0.3,0,0.6
	c0,1.6,0.5,2.9,1.6,4c1.1,1,2.7,1.5,4.8,1.5c0.9,0,2-0.2,3.2-0.6c1.2-0.4,2.5-1,3.9-1.7s2.9-1.5,4.4-2.3s3-1.8,4.5-2.7
	c1.5-0.9,2.9-1.8,4.2-2.7c1.3-0.9,2.6-1.6,3.7-2.3c1.4-1,2.5-2,3.1-2.9s0.9-1.7,0.9-2.5c0-0.6-0.2-1.1-0.6-1.5
	c-0.4-0.4-0.8-0.6-1.4-0.6c-0.2,0-0.5,0-0.8,0.2c-0.3,0.1-0.6,0.2-0.9,0.4c-1.3,0.7-2.8,1.6-4.7,2.6c-1.8,1-3.8,2.1-5.8,3.1
	s-4.1,2.1-6.2,3.1c-2.1,1-4,1.9-5.6,2.6c-0.2,0-0.4,0-0.4-0.1c0-0.1,0-0.3,0-0.5c0-0.3,0.3-0.8,1-1.5c0.7-0.7,1.5-1.6,2.5-2.6
	s2.1-2.1,3.3-3.3c1.2-1.2,2.3-2.4,3.4-3.6c1-1.2,1.9-2.3,2.7-3.4c0.8-1.1,1.3-2,1.4-2.8c0.1-0.5,0.1-0.9,0.2-1.2c0-0.4,0-0.8,0-1.1
	c0-1.6-0.4-2.7-1.2-3.4s-1.8-1-3.2-1c-0.9,0-1.9,0.1-3,0.4c-1.1,0.3-2.3,0.6-3.5,1.1c-1.2,0.5-2.5,1-3.8,1.6
	c-1.3,0.6-2.5,1.3-3.8,2.1L529.1,562.7z M512.6,591.1c0.8-0.3,1.5-0.7,2.3-1.2c0.7-0.5,1.4-1.2,2.1-1.9c0.6-0.8,1.1-1.6,1.5-2.5
	c0.4-0.9,0.9-2,1.4-3.2l0.2-0.5c0.5-1.1,1-2.2,1.6-3.3l2.5-5.2c0.6-1.3,1.2-2.4,1.7-3.3c0.3-0.6,0.9-1.2,1.7-1.8
	c0.8-0.6,1.7-1.1,2.7-1.6c0.9-0.5,1.8-0.8,2.7-1.1c0.8-0.2,1.3-0.4,1.7-0.4c0,0.1,0,0.1,0,0.2c0,0.6-0.2,1.2-0.6,1.9
	c-0.4,0.8-1,1.6-1.6,2.5c-0.7,0.9-1.4,1.9-2.2,2.9c-0.8,1-1.6,2.2-2.4,3.3c-0.8,1.2-1.4,2.4-2,3.7c-0.6,1.3-1,2.7-1.2,4.1
	c0,0.1,0,0.4,0,0.6c0,1.8,0.6,3.2,1.8,4.3c1.2,1.1,2.9,1.7,5.2,1.7c0.9,0,2.1-0.2,3.4-0.7c1.2-0.4,2.5-1,4-1.7
	c1.5-0.8,3-1.5,4.4-2.4c1.8-1.1,3.2-1.9,4.5-2.7l1.4-0.9c1-0.6,1.9-1.2,2.8-1.8c0.7-0.5,1.4-0.9,2.1-1.3c0.5-0.3,1.1-0.7,1.6-1
	c1.5-1,2.5-2,3.2-3c0.7-1,1-1.9,1-2.7c0-0.7-0.2-1.4-0.7-1.9c-0.7-0.7-1.7-0.9-2.7-0.5c-0.3,0.1-0.6,0.2-0.9,0.4
	c-1.3,0.7-2.8,1.6-4.7,2.6c-1.9,1-3.8,2.1-5.8,3.1c-2.1,1-4.1,2.1-6.2,3.1c-2,1-3.8,1.8-5.4,2.5c0,0,0,0,0-0.1c0,0,0.1-0.3,0.9-1.2
	c0.7-0.8,1.6-1.7,2.5-2.6l3.3-3.3c1.2-1.2,2.3-2.4,3.4-3.6c1-1.1,1.9-2.3,2.8-3.4c0.8-1.1,1.3-2.2,1.5-3.1c0.1-0.5,0.2-0.9,0.2-1.4
	c0-0.4,0-0.7,0-1.1c0-1.7-0.4-3-1.3-3.8c-0.9-0.8-2.1-1.1-3.6-1.1c-0.9,0-1.9,0.1-3.1,0.4c-1.1,0.3-2.3,0.6-3.5,1.1
	c-1.2,0.5-2.5,1-3.8,1.6c-1,0.5-2,1-2.9,1.5l0,0c0-0.1,0.1-0.2,0.1-0.3c0.1-0.2,0.1-0.4,0.1-0.6c0-0.7-0.3-1.3-0.8-1.8
	c-0.4-0.5-1-0.8-1.7-1.1c-0.7-0.3-1.4-0.5-2.3-0.7c-1.7-0.3-3.4-0.3-4.9,0c-0.7,0.2-1.4,0.5-2,0.8c-0.6,0.4-1.1,0.9-1.4,1.5
	c-0.4,0.6-0.5,1.3-0.5,2.2c0,0.9,0.2,1.7,0.5,2.3c0.2,0.5,0.5,0.9,0.9,1.3c-1.3,2.6-2.4,4.9-3.3,6.8c-0.7,1.5-1.3,2.8-1.9,4
	l-0.7,1.5c-0.7,1.6-1.4,3-2,4.3c-0.5,1.2-1.1,2.3-1.7,3.4c-0.4,0.6-0.6,1.3-0.7,1.8c-0.1,0.5-0.2,1-0.2,1.4c0,1,0.3,1.7,0.8,2.2
	c0.5,0.5,1.2,0.7,2,0.7C511.1,591.5,511.8,591.4,512.6,591.1z M525.2,558.2c0.8,0.1,1.5,0.3,2.1,0.6c0.6,0.3,1.1,0.6,1.4,0.9
	c0.3,0.3,0.5,0.7,0.5,1.1c0,0,0,0.1-0.1,0.2c0,0.1-0.1,0.2-0.1,0.3l-0.2,0.4c0,0.1-0.1,0.2-0.1,0.3c-0.1,0.2-0.1,0.4-0.1,0.6
	c0,0.3,0.2,0.6,0.6,0.6l0.4-0.1c1.1-0.7,2.3-1.4,3.7-2c1.3-0.6,2.5-1.1,3.7-1.6c1.2-0.4,2.4-0.8,3.4-1.1c2.9-0.7,4.7-0.5,5.8,0.5
	c0.6,0.6,1,1.6,1,3c0,0.3,0,0.7,0,1.1c0,0.4-0.1,0.8-0.2,1.2c-0.1,0.7-0.6,1.6-1.3,2.6c-0.8,1.1-1.7,2.3-2.7,3.4
	c-1,1.1-2.1,2.3-3.3,3.6l-3.3,3.3c-0.9,0.9-1.8,1.8-2.5,2.7c-0.8,0.9-1.1,1.4-1.1,1.9c0,0.3,0,0.5,0.1,0.7c0.1,0.3,0.4,0.5,0.9,0.5
	l0.2,0c1.7-0.7,3.5-1.6,5.7-2.6c2.1-1,4.1-2.1,6.2-3.1c2-1,4-2.1,5.9-3.1c1.8-1,3.4-1.9,4.7-2.6c0.3-0.2,0.6-0.3,0.8-0.4
	c0.3-0.1,0.5-0.1,0.6-0.1c0.4,0,0.8,0.1,1.1,0.4c0.3,0.3,0.4,0.7,0.4,1.2c0,0.6-0.3,1.3-0.8,2.2c-0.6,0.9-1.6,1.8-2.9,2.7
	c-0.5,0.3-1,0.6-1.6,1c-0.7,0.4-1.4,0.9-2.1,1.3c-0.9,0.6-1.8,1.2-2.8,1.8l-1.4,0.9c-1.3,0.8-2.7,1.6-4.5,2.7
	c-1.4,0.8-2.8,1.6-4.3,2.3c-1.5,0.7-2.7,1.2-3.9,1.6c-1.2,0.4-2.2,0.6-3,0.6c-2,0-3.5-0.5-4.5-1.4c-1-0.9-1.5-2.1-1.5-3.6
	c0-0.2,0-0.4,0-0.5c0.2-1.3,0.6-2.6,1.2-3.8c0.6-1.2,1.2-2.4,2-3.6c0.7-1.1,1.5-2.2,2.3-3.3c0.8-1.1,1.6-2,2.2-3
	c0.7-0.9,1.2-1.8,1.7-2.6c0.5-0.8,0.7-1.7,0.7-2.4c0-0.2,0-0.5-0.1-0.6c-0.1-0.4-0.5-0.6-0.9-0.6c-0.4,0-1.1,0.1-2,0.4
	c-0.9,0.3-1.8,0.7-2.8,1.2c-1,0.5-2,1-2.8,1.6c-1,0.7-1.6,1.4-2,2.1c-0.5,0.9-1.1,2-1.7,3.3l-2.5,5.2c-0.5,1.1-1.1,2.2-1.6,3.4
	l-0.2,0.5c-0.5,1.2-1,2.3-1.5,3.2c-0.4,0.8-0.8,1.6-1.4,2.3c-0.6,0.7-1.2,1.3-1.9,1.7c-0.7,0.5-1.4,0.9-2.1,1.1
	c-1.4,0.5-2.6,0.5-3.3-0.1c-0.4-0.3-0.5-1-0.5-1.4c0-0.3,0-0.7,0.1-1.2c0.1-0.5,0.3-1,0.6-1.6c0.6-1.1,1.2-2.3,1.7-3.5
	c0.6-1.3,1.3-2.7,2-4.3l0.7-1.5c0.6-1.2,1.2-2.6,1.9-4c1-2.1,2.1-4.5,3.5-7.2l0.2-0.3l-0.3-0.3c-0.4-0.4-0.7-0.8-1-1.2
	c-0.3-0.5-0.4-1-0.4-1.8c0-0.7,0.1-1.2,0.4-1.7c0.3-0.5,0.6-0.9,1.1-1.2c0.5-0.3,1-0.5,1.7-0.7c0.6-0.2,1.3-0.2,2.1-0.2
	C523.7,558,524.4,558.1,525.2,558.2z M534.7,565C534.7,565,534.7,565,534.7,565C534.7,565,534.7,565,534.7,565z M352.4,683.2l16,0
	l21.5-68.3h-14.7l-14.6,48h-0.2l-14.4-48h-14.6L352.4,683.2L352.4,683.2z M369.2,684.2l22.1-70.3h-16.8l-13.9,45.8l-13.7-45.8h-16.7
	l21.5,70.3L369.2,684.2z M345.4,615.9l14.4,48h1.7l14.6-48h12.6l-20.8,66.3l-14.6,0l-20.3-66.3H345.4z M448.5,614.9l-48.3,0v68.3h49
	v-12.6h-34.8v-16.7h31.3v-11.7h-31.3v-14.6h34.1V614.9L448.5,614.9z M450.3,669.6h-34.8v-14.7h31.3v-13.7h-31.3v-12.6h34.1v-14.6
	l-50.3,0v70.3h51V669.6z M401.2,615.9l46.3,0v10.6h-34.1v16.6h31.3v9.7h-31.3v18.7h34.8v10.6h-47V615.9z M510.4,675.5l1.4,7.8h9.1
	v-36.9h-27.2v11.2H508c-0.4,4.8-1.9,8.4-4.5,11c-2.6,2.5-6.2,3.8-10.9,3.8c-3.2,0-5.9-0.7-8.1-2c-2.2-1.3-4-3-5.4-5.2
	c-1.4-2.2-2.4-4.6-3-7.3c-0.6-2.7-1-5.5-1-8.4c0-3,0.3-5.9,1-8.7s1.6-5.3,3-7.5c1.4-2.2,3.2-4,5.4-5.3c2.2-1.3,4.9-2,8.1-2
	c3.4,0,6.4,1,8.8,2.9c2.4,1.9,4,4.8,4.9,8.6h13.6c-0.4-3.9-1.4-7.3-3-10.3c-1.6-3-3.7-5.5-6.2-7.5c-2.5-2-5.3-3.6-8.4-4.6
	c-3.1-1.1-6.3-1.6-9.6-1.6c-4.9,0-9.4,0.9-13.3,2.8c-4,1.9-7.3,4.4-10,7.7c-2.7,3.2-4.8,7-6.2,11.4s-2.2,9.1-2.2,14.2
	c0,5,0.7,9.6,2.2,13.9s3.5,8,6.2,11.2c2.7,3.2,6,5.7,10,7.5c3.9,1.8,8.4,2.7,13.3,2.7c3.1,0,6.2-0.7,9.3-2.1
	C505,681.3,507.8,678.9,510.4,675.5z M502.3,683.6L502.3,683.6c2.7-1.2,5.1-3.1,7.4-5.8l1.2,6.4h10.9v-38.9h-29.1v13.2h14.2
	c-0.5,4-1.9,7.1-4.1,9.2c-2.4,2.3-5.8,3.5-10.2,3.5c-3,0-5.6-0.6-7.6-1.8c-2.1-1.2-3.8-2.9-5.1-4.9c-1.3-2.1-2.3-4.4-2.9-7
	c-0.6-2.7-0.9-5.4-0.9-8.1c0-2.9,0.3-5.7,0.9-8.5c0.6-2.7,1.6-5.1,2.9-7.2c1.3-2,3-3.7,5.1-4.9c2.1-1.2,4.6-1.8,7.6-1.8
	c3.2,0,5.9,0.9,8.2,2.7c2.2,1.8,3.7,4.4,4.5,8l0.2,0.8H521l-0.1-1.1c-0.4-4-1.4-7.6-3.1-10.7c-1.7-3.1-3.9-5.7-6.4-7.8
	c-2.6-2.1-5.5-3.7-8.7-4.8c-3.2-1.1-6.5-1.6-10-1.6c-5.1,0-9.7,1-13.8,2.9c-4.1,1.9-7.5,4.6-10.3,7.9c-2.8,3.4-5,7.3-6.4,11.7
	c-1.5,4.5-2.2,9.4-2.2,14.5c0,5,0.7,9.8,2.2,14.2c1.5,4.4,3.6,8.3,6.4,11.6c2.8,3.3,6.3,5.9,10.3,7.8c4.1,1.9,8.7,2.8,13.8,2.8
	C495.9,685.7,499.1,685,502.3,683.6z M501.9,615.8c3,1,5.7,2.5,8.1,4.5c2.4,1.9,4.4,4.4,6,7.3c1.4,2.6,2.3,5.5,2.8,8.9h-11.7
	c-0.9-3.7-2.6-6.5-5.1-8.4c-2.6-2-5.8-3.1-9.4-3.1c-3.4,0-6.3,0.7-8.7,2.1c-2.4,1.4-4.3,3.3-5.8,5.6c-1.4,2.3-2.5,4.9-3.2,7.8
	c-0.6,2.9-1,5.9-1,8.9c0,2.9,0.3,5.8,1,8.6c0.7,2.8,1.7,5.4,3.2,7.6c1.5,2.3,3.4,4.2,5.8,5.5c2.4,1.4,5.3,2.1,8.7,2.1
	c4.9,0,8.9-1.4,11.6-4.1c2.7-2.7,4.3-6.6,4.8-11.6l0.1-1.1h-14.4v-9.2h25.1v34.9h-7.2l-1.7-9.2l-1.4,1.8c-2.5,3.3-5.2,5.6-8,6.9l0,0
	c-2.9,1.3-5.9,2-8.9,2c-4.8,0-9.1-0.9-12.9-2.6c-3.8-1.7-7-4.2-9.7-7.2c-2.6-3.1-4.7-6.7-6.1-10.9c-1.4-4.2-2.1-8.8-2.1-13.6
	c0-4.9,0.7-9.6,2.1-13.9c1.4-4.2,3.4-7.9,6.1-11.1c2.6-3.1,5.9-5.6,9.7-7.4c3.8-1.8,8.1-2.7,12.9-2.7
	C495.8,614.3,499,614.8,501.9,615.8z M554.8,614.9l-24.4,68.3h14.3l5.1-15.2h24.2l4.9,15.2h14.8l-24.2-68.3H554.8z M553.4,656.8
	l8.4-25h0.2l8.2,25H553.4z M570.1,613.9h-16l-25.1,70.3h16.4l5.1-15.2h22.7l4.9,15.2h16.9L570.1,613.9z M574.6,667H549l-5.1,15.2
	h-12.1l23.7-66.3h13.1l23.5,66.3h-12.6L574.6,667z M562.7,630.8h-1.6l-9.1,27h19.5L562.7,630.8z M561.9,634.7l6.9,21.1h-14
	L561.9,634.7z M613.6,660.5h-13.8c-0.1,4.2,0.6,7.8,2.2,10.9c1.5,3.1,3.5,5.6,6.1,7.5c2.6,2,5.5,3.4,8.9,4.4
	c3.3,0.9,6.8,1.4,10.4,1.4c4.4,0,8.3-0.5,11.6-1.6c3.3-1.1,6.2-2.6,8.4-4.5c2.3-2,4-4.3,5.1-6.9c1.1-2.7,1.7-5.6,1.7-8.7
	c0-3.8-0.8-7-2.3-9.4c-1.5-2.5-3.4-4.4-5.5-5.9c-2.1-1.5-4.2-2.5-6.4-3.2c-2.2-0.7-3.8-1.1-5-1.4c-4-1.1-7.3-2-9.8-2.7
	c-2.5-0.7-4.5-1.4-5.9-2.1c-1.4-0.7-2.4-1.5-2.8-2.3c-0.5-0.8-0.7-1.9-0.7-3.2c0-1.5,0.3-2.7,0.9-3.6c0.6-1,1.4-1.7,2.3-2.4
	s2-1.1,3.1-1.3s2.3-0.4,3.5-0.4c1.8,0,3.4,0.1,4.8,0.5c1.5,0.3,2.8,0.9,3.9,1.6s2.1,1.8,2.8,3.2c0.7,1.3,1.1,3,1.2,5.1H652
	c0-4-0.7-7.3-2.1-10.1c-1.4-2.8-3.3-5.1-5.7-6.8c-2.4-1.8-5.2-3.1-8.3-3.9s-6.3-1.2-9.7-1.2c-2.9,0-5.8,0.4-8.7,1.2
	c-2.9,0.8-5.5,2.1-7.8,3.8c-2.3,1.7-4.2,3.9-5.6,6.5c-1.4,2.6-2.1,5.6-2.1,9.1c0,3.1,0.6,5.8,1.7,8s2.6,4,4.4,5.5
	c1.8,1.5,3.9,2.7,6.1,3.6c2.3,0.9,4.6,1.7,7.1,2.3c2.3,0.7,4.7,1.3,7,1.9c2.3,0.6,4.3,1.2,6.2,2s3.3,1.7,4.4,2.9
	c1.1,1.1,1.7,2.6,1.7,4.5c0,1.7-0.4,3.1-1.3,4.3c-0.9,1.1-1.9,2-3.2,2.6c-1.3,0.6-2.6,1.1-4.1,1.3c-1.5,0.2-2.8,0.3-4.1,0.3
	c-1.9,0-3.7-0.2-5.4-0.7c-1.7-0.5-3.3-1.2-4.6-2.2s-2.3-2.3-3.1-3.9C614,664.8,613.6,662.8,613.6,660.5z M639.3,684
	c3.5-1.1,6.4-2.7,8.8-4.7c2.4-2,4.2-4.5,5.4-7.3c1.2-2.8,1.8-5.8,1.8-9.1c0-4-0.8-7.4-2.5-10c-1.6-2.6-3.6-4.6-5.8-6.2
	c-2.2-1.5-4.4-2.6-6.7-3.3c-2.3-0.7-3.9-1.2-5.1-1.4c-4-1.1-7.3-2-9.8-2.7c-2.3-0.6-4.2-1.3-5.7-2c-1.2-0.6-2-1.3-2.4-1.9
	c-0.4-0.7-0.6-1.6-0.6-2.7c0-1.3,0.3-2.3,0.7-3.1c0.5-0.8,1.2-1.5,2-2.1c0.8-0.6,1.7-1,2.8-1.2c1.1-0.2,2.2-0.4,3.2-0.4
	c1.7,0,3.2,0.1,4.6,0.5c1.3,0.3,2.6,0.8,3.6,1.5c1,0.7,1.8,1.6,2.4,2.8c0.6,1.2,1,2.8,1.1,4.7l0.1,0.9H653v-1
	c0-4.1-0.8-7.7-2.2-10.5c-1.5-2.9-3.5-5.3-6-7.2c-2.5-1.9-5.4-3.2-8.6-4c-5.9-1.5-12.4-1.8-18.9,0.1c-3,0.9-5.7,2.2-8.1,4
	c-2.4,1.8-4.4,4.1-5.8,6.8c-1.5,2.7-2.2,6-2.2,9.6c0,3.3,0.6,6.1,1.8,8.4c1.2,2.3,2.7,4.3,4.6,5.8c1.8,1.5,4,2.8,6.4,3.7
	c2.3,0.9,4.7,1.7,7.1,2.4c2.4,0.7,4.7,1.4,7,1.9c2.3,0.6,4.3,1.2,6,1.9c1.7,0.7,3,1.6,4.1,2.7c0.9,1,1.4,2.2,1.4,3.8
	c0,1.5-0.3,2.7-1.1,3.6c-0.8,1-1.7,1.8-2.8,2.3c-1.1,0.6-2.4,1-3.8,1.2c-3.4,0.5-6.3,0.4-9.1-0.4c-1.7-0.5-3-1.1-4.2-2
	c-1.2-0.9-2.1-2.1-2.8-3.5l0,0c-0.7-1.4-1.1-3.2-1.1-5.4l0-1h-15.7l0,1c-0.1,4.4,0.7,8.1,2.3,11.4c1.6,3.2,3.7,5.8,6.4,7.9
	c2.7,2.1,5.8,3.6,9.2,4.5c3.4,0.9,7,1.4,10.6,1.4C631.8,685.7,635.8,685.1,639.3,684z M612.6,661.5c0.1,2.1,0.5,3.8,1.3,5.3l0,0
	c0.8,1.7,2,3.1,3.4,4.2c1.4,1,3,1.8,4.9,2.4c3.1,0.8,6.3,1,9.9,0.4c1.6-0.3,3.1-0.7,4.4-1.4c1.4-0.7,2.6-1.7,3.5-2.9
	c1-1.3,1.5-2.9,1.5-4.9c0-2.1-0.7-3.9-2-5.2c-1.2-1.2-2.8-2.3-4.7-3.1c-1.8-0.8-3.9-1.5-6.3-2.1c-2.3-0.6-4.6-1.2-6.9-1.9
	c-2.4-0.6-4.7-1.4-6.9-2.3c-2.2-0.9-4.2-2-5.9-3.4c-1.7-1.4-3.1-3.1-4.1-5.2c-1-2-1.6-4.6-1.6-7.5c0-3.3,0.7-6.2,2-8.7
	c1.4-2.5,3.1-4.5,5.3-6.1c2.2-1.6,4.7-2.9,7.5-3.7c6.2-1.8,12.3-1.5,17.9-0.1c3,0.8,5.6,2,7.9,3.7c2.3,1.7,4.1,3.8,5.4,6.5
	c1.2,2.4,1.9,5.3,2,8.6h-11.8c-0.2-1.8-0.6-3.3-1.2-4.5c-0.8-1.5-1.8-2.7-3.1-3.5c-1.2-0.8-2.7-1.4-4.3-1.8
	c-1.5-0.3-3.2-0.5-5.1-0.5c-1.2,0-2.4,0.1-3.7,0.4c-1.3,0.3-2.5,0.8-3.5,1.5c-1,0.7-1.9,1.6-2.6,2.7c-0.7,1.1-1.1,2.5-1.1,4.2
	c0,1.5,0.3,2.8,0.9,3.8c0.6,1,1.7,1.9,3.3,2.7c1.6,0.8,3.6,1.5,6.1,2.2c2.5,0.7,5.8,1.6,9.9,2.7c1.1,0.2,2.7,0.7,4.9,1.4
	c2,0.6,4.1,1.7,6.1,3.1c2,1.4,3.7,3.2,5.2,5.6c1.4,2.3,2.2,5.3,2.2,8.9c0,3-0.5,5.8-1.6,8.3c-1.1,2.5-2.7,4.7-4.9,6.6
	c-2.1,1.8-4.8,3.3-8.1,4.3c-3.3,1-7.1,1.6-11.3,1.6c-3.4,0-6.8-0.5-10.1-1.4c-3.2-0.9-6.1-2.3-8.5-4.2c-2.4-1.9-4.4-4.3-5.8-7.2
	c-1.3-2.7-2-5.8-2.1-9.5H612.6z M130.9,334.5l111.8-23.8l-24-45.3c-0.9-1.4,0.9-2.8,1.9-1.9l45.3,24l23.8-111.8
	c0.3-1.6,2.5-1.6,2.8,0l23.8,111.8l45.3-24c1.4-0.9,2.8,0.9,1.9,1.9l-24,45.3l111.8,23.8c1.7,0.3,1.7,2.5,0,2.8l-111.8,23.8l24,45.3
	c0.9,1.4-0.9,2.8-1.9,1.9l-45.3-24l-4.1,19.1c-2.5-1.2-2.6-1.3-5.1-2.4l4-21.5L290.8,336l68,66.8l-22.1-40.5L290.8,336h153.5
	l-109.6-20.2L290.8,336l66.8-68l-40.2,22.1L290.8,336V182.5l-20.1,109.6l20.1,43.9l-67.6-66.8l22,40.5l45.6,26.3H137.4l109.9,20.1
	l43.5-20.1l-66.8,67.9l40.5-22.1l26.3-45.8v60.6c-5.5-0.6-12.4-1.5-22.2,0.2l-2.6-12.5l-45.3,24c-1.4,0.9-2.8-0.9-1.9-1.9l24-45.3
	l-111.8-23.8C129.2,337.1,129.2,334.8,130.9,334.5z M497.9,465.4c0,38.5-31.2,69.6-69.6,69.6s-69.6-31.2-69.6-69.6
	c0-38.5,31.2-69.5,69.6-69.5S497.9,426.9,497.9,465.4z M480,465.4c0-28.5-23.1-51.7-51.7-51.7c-28.5,0-51.7,23.1-51.7,51.7
	c0,28.5,23.1,51.7,51.7,51.7C456.8,517.1,480,493.9,480,465.4z M645.8,465.4c0,38.5-31.2,69.6-69.6,69.6s-69.6-31.2-69.6-69.6
	c0-38.5,31.2-69.6,69.6-69.6S645.8,426.9,645.8,465.4z M627.9,465.4c0-28.5-23.1-51.7-51.7-51.7c-28.5,0-51.7,23.1-51.7,51.7
	c0,28.5,23.1,51.7,51.7,51.7C604.7,517.1,627.9,493.9,627.9,465.4z M350,465.4c0,38.5-31.2,69.6-69.6,69.6s-69.6-31.2-69.6-69.6
	c0-38.5,31.2-69.6,69.6-69.6S350,426.9,350,465.4z M332.1,465.4c0-28.5-23.1-51.7-51.7-51.7s-51.7,23.1-51.7,51.7
	c0,28.5,23.1,51.7,51.7,51.7S332.1,493.9,332.1,465.4z M793.7,465.4c0,38.5-31.2,69.6-69.6,69.6s-69.6-31.2-69.6-69.6
	c0-38.5,31.2-69.6,69.6-69.6S793.7,426.9,793.7,465.4z M775.7,465.4c0-28.5-23.1-51.7-51.7-51.7c-28.5,0-51.7,23.1-51.7,51.7
	c0,28.5,23.1,51.7,51.7,51.7C752.6,517.1,775.7,493.9,775.7,465.4z M297,454.4h13.8c-0.4-3.7-1.4-7.1-3.1-10s-3.7-5.3-6.2-7.3
	c-2.5-2-5.3-3.5-8.5-4.5c-3.2-1-6.5-1.5-10.1-1.5c-4.9,0-9.4,0.9-13.3,2.6c-4,1.8-7.3,4.2-10,7.2c-2.7,3.1-4.8,6.7-6.2,10.8
	c-1.4,4.1-2.2,8.6-2.2,13.4c0,4.7,0.7,9.1,2.2,13.2c1.4,4.1,3.5,7.6,6.2,10.6c2.7,3,6,5.4,10,7.1c4,1.7,8.4,2.6,13.3,2.6
	c4,0,7.6-0.6,10.9-1.8c3.3-1.2,6.2-3,8.7-5.2c2.5-2.3,4.5-5.1,6-8.3c1.5-3.3,2.4-6.9,2.8-10.9h-13.8c-0.5,4.3-2,7.8-4.5,10.5
	c-2.4,2.7-5.8,4-10.2,4c-3.2,0-5.9-0.6-8.1-1.9c-2.2-1.2-4-2.9-5.4-4.9c-1.4-2-2.4-4.4-3-6.9c-0.6-2.6-1-5.2-1-7.9
	c0-2.8,0.3-5.6,1-8.2c0.6-2.7,1.6-5,3-7.1c1.4-2.1,3.2-3.7,5.4-5c2.2-1.2,4.9-1.9,8.1-1.9c1.7,0,3.4,0.3,5,0.9
	c1.6,0.6,3,1.4,4.3,2.4c1.3,1,2.3,2.2,3.2,3.6C296.3,451.2,296.8,452.7,297,454.4z M396.2,466.7c0,4.7,0.7,9.1,2.2,13.2
	c1.4,4.1,3.5,7.6,6.2,10.6c2.7,3,6,5.4,10,7.1c4,1.7,8.4,2.6,13.3,2.6c5,0,9.5-0.9,13.4-2.6c3.9-1.7,7.2-4.1,10-7.1
	s4.8-6.6,6.2-10.6c1.4-4.1,2.2-8.5,2.2-13.2c0-4.8-0.7-9.3-2.2-13.4c-1.4-4.1-3.5-7.7-6.2-10.8c-2.7-3.1-6-5.5-10-7.2
	c-3.9-1.7-8.4-2.6-13.4-2.6c-4.9,0-9.4,0.9-13.3,2.6c-4,1.8-7.3,4.2-10,7.2c-2.7,3.1-4.8,6.7-6.2,10.8
	C397,457.4,396.2,461.8,396.2,466.7z M410.5,466.7c0-2.8,0.3-5.6,1-8.2c0.6-2.7,1.6-5,3-7.1c1.4-2.1,3.2-3.7,5.4-5
	c2.2-1.2,4.9-1.9,8.1-1.9c3.2,0,5.9,0.6,8.1,1.9c2.2,1.2,4,2.9,5.4,5c1.4,2.1,2.4,4.5,3,7.1c0.6,2.7,1,5.4,1,8.2
	c0,2.7-0.3,5.4-1,7.9c-0.6,2.6-1.6,4.9-3,6.9c-1.4,2.1-3.2,3.7-5.4,4.9c-2.2,1.2-4.9,1.9-8.1,1.9c-3.2,0-5.9-0.6-8.1-1.9
	c-2.2-1.2-4-2.9-5.4-4.9c-1.4-2-2.4-4.4-3-6.9C410.8,472,410.5,469.4,410.5,466.7z M553.2,432.6v64.6H581c4.9,0,9.2-0.8,12.9-2.5
	c3.6-1.7,6.7-3.9,9.1-6.8s4.3-6.3,5.5-10.3c1.2-4,1.8-8.3,1.8-13c0-5.4-0.7-10-2.2-14c-1.5-4-3.5-7.3-6.2-10c-2.6-2.7-5.7-4.6-9.3-6
	c-3.6-1.3-7.5-2-11.6-2H553.2z M567.4,485.3v-40.7h10.1c3.5,0,6.4,0.5,8.8,1.5c2.4,1,4.3,2.4,5.7,4.3c1.4,1.9,2.5,4.1,3.1,6.7
	c0.6,2.6,1,5.6,1,8.8c0,3.6-0.5,6.6-1.4,9c-0.9,2.5-2.1,4.5-3.6,6c-1.5,1.5-3.2,2.6-5.2,3.3c-1.9,0.7-3.9,1-6,1H567.4z M698.6,432.6
	v64.6h49v-11.9h-34.8v-15.8h31.3v-11h-31.3v-13.8h34.1v-11.9H698.6z"/>
</svg>
