<?xml version="1.0" encoding="utf-8"?>
<!-- Generator: Adobe Illustrator 26.3.1, SVG Export Plug-In . SVG Version: 6.00 Build 0)  -->
<svg version="1.1" id="Layer_1" xmlns="http://www.w3.org/2000/svg" xmlns:xlink="http://www.w3.org/1999/xlink" x="0px" y="0px"
	 viewBox="0 0 1000 1000" style="enable-background:new 0 0 1000 1000;" xml:space="preserve">
<style type="text/css">
	.st0{fill:#3A64DB;}
	.st1{fill:url(#SVGID_1_);}
	.st2{fill:#FFFFFF;}
	.st3{enable-background:new    ;}
	.st4{fill:#204DEF;stroke:#204DEF;stroke-miterlimit:10;}
	.st5{fill:#DB0707;stroke:#DB0707;stroke-width:2;stroke-miterlimit:10;}
	.st6{fill:#EA7636;}
	.st7{fill:#D16733;}
	.st8{fill:#E2E6F2;}
	.st9{fill:#FCFCFC;}
	.st10{fill:#517DED;}
	.st11{font-family:'HelveticaNeue-Bold';}
	.st12{font-size:93.3135px;}
	.st13{letter-spacing:4;}
</style>
<g>
	<path class="st0" d="M147.9,194.3v428.6c0,4.3,3.7,7.8,8.4,7.8h15.6c4.6,0,8.4-3.5,8.4-7.8V229.8c0-4.3,3.7-7.8,8.4-7.8h183.6
		c4.6,0,8.4,3.5,8.4,7.8v439.8c0,4.3,3.7,7.8,8.4,7.8h15.6c4.6,0,8.4-3.5,8.4-7.8V194.3c0-4.3-3.7-7.8-8.4-7.8H156
		C151.9,186.6,147.9,190,147.9,194.3z"/>
	
		<radialGradient id="SVGID_1_" cx="501.7" cy="2930.082" r="350.3714" gradientTransform="matrix(1 0 0 1 0 -2369.2319)" gradientUnits="userSpaceOnUse">
		<stop  offset="0" style="stop-color:#FCCE06"/>
		<stop  offset="0.0312" style="stop-color:#FCCE06"/>
		<stop  offset="0.043" style="stop-color:#FCCD06"/>
		<stop  offset="0.0703" style="stop-color:#FCCC06"/>
		<stop  offset="0.125" style="stop-color:#FCCC06"/>
		<stop  offset="0.1367" style="stop-color:#FCCB07"/>
		<stop  offset="0.1602" style="stop-color:#FCCB07"/>
		<stop  offset="0.1836" style="stop-color:#FCCA07"/>
		<stop  offset="0.207" style="stop-color:#FCC907"/>
		<stop  offset="0.2305" style="stop-color:#FCC907"/>
		<stop  offset="0.2422" style="stop-color:#FBC807"/>
		<stop  offset="0.2656" style="stop-color:#FBC707"/>
		<stop  offset="0.2734" style="stop-color:#FBC707"/>
		<stop  offset="0.2812" style="stop-color:#FBC607"/>
		<stop  offset="0.3008" style="stop-color:#FBC607"/>
		<stop  offset="0.3086" style="stop-color:#FBC607"/>
		<stop  offset="0.3164" style="stop-color:#FBC508"/>
		<stop  offset="0.3242" style="stop-color:#FBC508"/>
		<stop  offset="0.332" style="stop-color:#FBC408"/>
		<stop  offset="0.3516" style="stop-color:#FBC408"/>
		<stop  offset="0.3555" style="stop-color:#FBC308"/>
		<stop  offset="0.3633" style="stop-color:#FBC308"/>
		<stop  offset="0.3711" style="stop-color:#FBC208"/>
		<stop  offset="0.3789" style="stop-color:#FBC208"/>
		<stop  offset="0.3945" style="stop-color:#FBC108"/>
		<stop  offset="0.4102" style="stop-color:#FBC008"/>
		<stop  offset="0.418" style="stop-color:#FBBF09"/>
		<stop  offset="0.4258" style="stop-color:#FBBE09"/>
		<stop  offset="0.4414" style="stop-color:#FBBE09"/>
		<stop  offset="0.457" style="stop-color:#FBBD09"/>
		<stop  offset="0.4648" style="stop-color:#FABC09"/>
		<stop  offset="0.4727" style="stop-color:#FABC09"/>
		<stop  offset="0.4805" style="stop-color:#FABB09"/>
		<stop  offset="0.4844" style="stop-color:#FABA09"/>
		<stop  offset="0.4922" style="stop-color:#FAB909"/>
		<stop  offset="0.5078" style="stop-color:#FAB80A"/>
		<stop  offset="0.5352" style="stop-color:#FAB80A"/>
		<stop  offset="0.5469" style="stop-color:#FAB70A"/>
		<stop  offset="0.5508" style="stop-color:#FAB70A"/>
		<stop  offset="0.5547" style="stop-color:#FAB60A"/>
		<stop  offset="0.5586" style="stop-color:#FAB60A"/>
		<stop  offset="0.5625" style="stop-color:#FAB50A"/>
		<stop  offset="0.5742" style="stop-color:#FAB40A"/>
		<stop  offset="0.5859" style="stop-color:#FAB40A"/>
		<stop  offset="0.5898" style="stop-color:#FAB30B"/>
		<stop  offset="0.6016" style="stop-color:#FAB20B"/>
		<stop  offset="0.6055" style="stop-color:#FAB10B"/>
		<stop  offset="0.6094" style="stop-color:#FAB10B"/>
		<stop  offset="0.6133" style="stop-color:#F9B00B"/>
		<stop  offset="0.625" style="stop-color:#F9AF0B"/>
		<stop  offset="0.6367" style="stop-color:#F9AE0B"/>
		<stop  offset="0.6445" style="stop-color:#F9AE0B"/>
		<stop  offset="0.6484" style="stop-color:#F9AD0C"/>
		<stop  offset="0.6562" style="stop-color:#F9AD0C"/>
		<stop  offset="0.6758" style="stop-color:#F9AC0C"/>
		<stop  offset="0.6836" style="stop-color:#F9AB0C"/>
		<stop  offset="0.6875" style="stop-color:#F9AA0C"/>
		<stop  offset="0.6914" style="stop-color:#F9AA0C"/>
		<stop  offset="0.6992" style="stop-color:#F9A90C"/>
		<stop  offset="0.707" style="stop-color:#F9A80C"/>
		<stop  offset="0.7148" style="stop-color:#F9A80D"/>
		<stop  offset="0.7227" style="stop-color:#F9A70D"/>
		<stop  offset="0.7266" style="stop-color:#F9A60D"/>
		<stop  offset="0.7305" style="stop-color:#F9A50D"/>
		<stop  offset="0.7383" style="stop-color:#F8A40D"/>
		<stop  offset="0.7539" style="stop-color:#F8A30D"/>
		<stop  offset="0.7578" style="stop-color:#F8A30D"/>
		<stop  offset="0.7695" style="stop-color:#F8A20E"/>
		<stop  offset="0.7734" style="stop-color:#F8A10E"/>
		<stop  offset="0.7773" style="stop-color:#F8A10E"/>
		<stop  offset="0.7812" style="stop-color:#F8A00E"/>
		<stop  offset="0.793" style="stop-color:#F8A00E"/>
		<stop  offset="0.7969" style="stop-color:#F89F0E"/>
		<stop  offset="0.8008" style="stop-color:#F89F0E"/>
		<stop  offset="0.8047" style="stop-color:#F89E0E"/>
		<stop  offset="0.8086" style="stop-color:#F89E0E"/>
		<stop  offset="0.8125" style="stop-color:#F89E0E"/>
		<stop  offset="0.8164" style="stop-color:#F89D0E"/>
		<stop  offset="0.8242" style="stop-color:#F89C0F"/>
		<stop  offset="0.832" style="stop-color:#F89B0F"/>
		<stop  offset="0.8398" style="stop-color:#F89A0F"/>
		<stop  offset="0.8477" style="stop-color:#F89A0F"/>
		<stop  offset="0.8516" style="stop-color:#F8990F"/>
		<stop  offset="0.8555" style="stop-color:#F8980F"/>
		<stop  offset="0.8633" style="stop-color:#F7970F"/>
		<stop  offset="0.8711" style="stop-color:#F7960F"/>
		<stop  offset="0.875" style="stop-color:#F79510"/>
		<stop  offset="0.8828" style="stop-color:#F79510"/>
		<stop  offset="0.8867" style="stop-color:#F79410"/>
		<stop  offset="0.8906" style="stop-color:#F79410"/>
		<stop  offset="0.8945" style="stop-color:#F79410"/>
		<stop  offset="0.8984" style="stop-color:#F79310"/>
		<stop  offset="0.9023" style="stop-color:#F79210"/>
		<stop  offset="0.9141" style="stop-color:#F79210"/>
		<stop  offset="0.9219" style="stop-color:#F79110"/>
		<stop  offset="0.9258" style="stop-color:#F79011"/>
		<stop  offset="0.9297" style="stop-color:#F79011"/>
		<stop  offset="0.9336" style="stop-color:#F78F11"/>
		<stop  offset="0.9375" style="stop-color:#F78E11"/>
		<stop  offset="0.9453" style="stop-color:#F78D11"/>
		<stop  offset="0.9492" style="stop-color:#F78D11"/>
		<stop  offset="0.9531" style="stop-color:#F68C11"/>
		<stop  offset="0.957" style="stop-color:#F68C11"/>
		<stop  offset="0.9648" style="stop-color:#F68B11"/>
		<stop  offset="0.9688" style="stop-color:#F68A12"/>
		<stop  offset="0.9766" style="stop-color:#F68912"/>
		<stop  offset="0.9805" style="stop-color:#F68812"/>
		<stop  offset="0.9883" style="stop-color:#F68812"/>
		<stop  offset="0.9922" style="stop-color:#F68712"/>
		<stop  offset="1" style="stop-color:#F68712"/>
	</radialGradient>
	<path class="st1" d="M486,786.4l-389.7-173c-45.5-20.2-45.5-85,0-105.2L486,335.3c10.1-4.3,21.3-4.3,31.4,0l389.7,172.9
		c45.5,20.2,45.5,85,0,105.2l-389.7,173C507.3,790.7,495.8,790.7,486,786.4z"/>
	<path class="st2" d="M492.6,756.7L106.4,585.2c-21.3-9.5-21.3-39.8,0-49.3l386.2-171.5c2.9-1.2,6.1-1.2,8.6,0l386.2,171.5
		c21.3,9.5,21.3,39.8,0,49.3L501.3,756.7C498.7,757.8,495.5,757.8,492.6,756.7z"/>
	<g class="st3">
		<path class="st4" d="M480.18,545.78c-1.67,0.06-3.25,0.11-4.75,0.14c-1.49,0.03-2.95,0.06-4.36,0.07
			c-1.41,0.02-2.81,0.02-4.19,0.02c-1.38,0-2.78,0-4.19,0c-0.84,1.64-1.78,3.54-2.82,5.71c-1.04,2.17-2.14,4.44-3.28,6.82
			c-1.14,2.38-2.28,4.78-3.42,7.2c-1.14,2.43-2.22,4.72-3.25,6.89c-1.03,2.17-1.96,4.13-2.79,5.88c-0.84,1.75-1.51,3.14-2.02,4.17
			c-0.35,0.74-0.79,1.42-1.3,2.05c-0.51,0.63-1.08,1.16-1.69,1.61c-0.61,0.45-1.24,0.79-1.88,1.04s-1.24,0.36-1.78,0.36
			c-0.77,0-1.46-0.19-2.07-0.58s-0.92-1-0.92-1.83c0-0.42,0.1-0.91,0.29-1.47c0.19-0.56,0.47-1.21,0.82-1.95l17.01-36.04h-2.55
			c-1.77,0-2.97-0.27-3.61-0.82s-0.96-1.19-0.96-1.93c0-0.77,0.4-1.52,1.21-2.24c0.8-0.72,1.98-1.08,3.52-1.08h5.69
			c2.28-4.59,4.57-8.38,6.87-11.37s4.55-5.35,6.77-7.08c2.22-1.73,4.38-2.94,6.48-3.61c2.1-0.67,4.12-1.01,6.05-1.01
			c0.9,0,1.76,0.18,2.58,0.53c0.82,0.35,1.54,0.88,2.17,1.59c0.63,0.71,1.13,1.6,1.52,2.67c0.39,1.08,0.58,2.34,0.58,3.78
			c0,1.38-0.19,2.91-0.58,4.58c-0.1,0.45-0.29,0.83-0.58,1.13c-0.29,0.31-0.61,0.55-0.96,0.75c-0.35,0.19-0.71,0.33-1.06,0.41
			c-0.35,0.08-0.66,0.12-0.92,0.12c-0.64,0-1.24-0.15-1.78-0.46s-0.82-0.78-0.82-1.42c0-0.42,0.02-0.8,0.07-1.16
			c0.05-0.35,0.07-0.71,0.07-1.06c0-1.35-0.25-2.31-0.75-2.89c-0.5-0.58-1.17-0.87-2-0.87c-1,0-2.16,0.43-3.49,1.3
			c-1.33,0.87-2.68,2.02-4.05,3.47c-1.37,1.45-2.67,3.09-3.93,4.94c-1.25,1.85-2.28,3.73-3.08,5.66h11.23c1,0,1.93,0.02,2.79,0.05
			c0.87,0.03,1.63,0.13,2.29,0.29c0.66,0.16,1.17,0.43,1.54,0.8c0.37,0.37,0.55,0.91,0.55,1.61c0,0.35-0.06,0.71-0.19,1.06
			c-0.13,0.35-0.35,0.68-0.65,0.99c-0.31,0.31-0.73,0.56-1.28,0.77C481.75,545.58,481.04,545.72,480.18,545.78z"/>
		<path class="st4" d="M492.27,538.12c1.22,0,2.53,0.16,3.93,0.48c1.4,0.32,2.69,0.87,3.88,1.64c1.19,0.77,2.18,1.79,2.96,3.06
			c0.79,1.27,1.18,2.84,1.18,4.7c0,0.96-0.13,2.06-0.39,3.3c-0.26,1.24-0.64,2.53-1.16,3.88c0.32,0.38,0.69,0.66,1.11,0.82
			c0.42,0.16,0.87,0.24,1.35,0.24c0.67,0,1.42-0.19,2.24-0.58s1.66-0.88,2.53-1.49s1.74-1.3,2.6-2.07c0.87-0.77,1.69-1.54,2.46-2.31
			c0.77-0.77,1.47-1.5,2.1-2.19c0.63-0.69,1.15-1.28,1.57-1.76c0.22-0.22,0.5-0.34,0.82-0.34c0.45,0,0.85,0.23,1.21,0.7
			c0.35,0.47,0.53,1.12,0.53,1.95s-0.25,1.8-0.75,2.89c-0.5,1.09-1.42,2.23-2.77,3.42c-0.77,0.83-1.66,1.8-2.65,2.89
			c-1,1.09-2.06,2.12-3.18,3.08c-1.12,0.96-2.3,1.78-3.52,2.46c-1.22,0.67-2.44,1.01-3.66,1.01c-0.84,0-1.65-0.13-2.43-0.39
			c-0.79-0.26-1.58-0.67-2.39-1.25c-1.16,1.8-2.47,3.44-3.95,4.92c-1.48,1.48-3.12,2.75-4.94,3.81c-1.81,1.06-3.77,1.89-5.88,2.48
			c-2.1,0.59-4.35,0.89-6.72,0.89c-0.9,0-1.94-0.18-3.13-0.53c-1.19-0.35-2.32-0.94-3.4-1.76c-1.08-0.82-1.98-1.89-2.72-3.21
			c-0.74-1.32-1.11-2.92-1.11-4.82c0-1.28,0.21-2.83,0.63-4.63c0.42-1.8,1.05-3.65,1.9-5.57c0.85-1.91,1.93-3.81,3.23-5.69
			c1.3-1.88,2.85-3.57,4.65-5.06s3.86-2.7,6.17-3.61C486.88,538.58,489.45,538.12,492.27,538.12z M489.77,546.6
			c-1.51,0-2.96,0.38-4.36,1.13c-1.4,0.75-2.63,1.75-3.71,2.99c-1.08,1.24-1.94,2.63-2.58,4.19c-0.64,1.56-0.96,3.16-0.96,4.79
			c0,0.61,0.05,1.28,0.14,2c0.1,0.72,0.3,1.4,0.6,2.02c0.3,0.63,0.75,1.15,1.32,1.57c0.58,0.42,1.35,0.63,2.31,0.63
			c1.48,0,2.92-0.39,4.31-1.18c1.4-0.79,2.64-1.81,3.73-3.08c1.09-1.27,1.96-2.71,2.6-4.31c0.64-1.61,0.96-3.23,0.96-4.87
			c0-0.64-0.04-1.31-0.12-2s-0.27-1.33-0.58-1.9s-0.75-1.05-1.33-1.42C491.55,546.78,490.76,546.6,489.77,546.6z"/>
		<path class="st4" d="M528.99,545.06c1.25-0.77,2.55-1.48,3.88-2.12c1.33-0.64,2.63-1.2,3.88-1.66c1.25-0.46,2.45-0.83,3.59-1.11
			c1.14-0.27,2.16-0.41,3.06-0.41c1.45,0,2.56,0.35,3.35,1.04c0.79,0.69,1.18,1.85,1.18,3.49c0,0.35-0.02,0.73-0.05,1.13
			s-0.1,0.83-0.19,1.28c-0.16,0.84-0.64,1.82-1.45,2.94c-0.8,1.12-1.74,2.3-2.82,3.52c-1.08,1.22-2.23,2.45-3.47,3.69
			c-1.24,1.24-2.38,2.38-3.42,3.42c-1.04,1.04-1.91,1.95-2.6,2.72c-0.69,0.77-1.04,1.3-1.04,1.59c0,0.26,0.02,0.43,0.05,0.53
			c0.03,0.1,0.18,0.14,0.43,0.14c1.73-0.74,3.67-1.63,5.81-2.67c2.14-1.04,4.26-2.11,6.38-3.2s4.13-2.16,6.02-3.21
			c1.89-1.04,3.5-1.95,4.82-2.72c0.29-0.16,0.59-0.3,0.89-0.41c0.3-0.11,0.59-0.17,0.84-0.17c0.58,0,1.06,0.19,1.45,0.58
			c0.38,0.39,0.58,0.9,0.58,1.54c0,0.74-0.31,1.58-0.94,2.53c-0.63,0.95-1.68,1.94-3.16,2.96c-1.12,0.71-2.39,1.5-3.78,2.38
			c-1.4,0.88-2.86,1.8-4.38,2.75c-1.53,0.95-3.07,1.87-4.63,2.77c-1.56,0.9-3.06,1.7-4.51,2.41c-1.45,0.71-2.8,1.28-4.07,1.71
			c-1.27,0.43-2.37,0.65-3.3,0.65c-2.22,0-3.88-0.53-4.99-1.59c-1.11-1.06-1.66-2.43-1.66-4.1c0-0.26,0.02-0.45,0.05-0.58
			c0.22-1.41,0.64-2.78,1.25-4.1c0.61-1.32,1.3-2.57,2.07-3.76c0.77-1.19,1.57-2.32,2.41-3.4s1.6-2.09,2.29-3.04
			c0.69-0.95,1.26-1.82,1.71-2.63c0.45-0.8,0.67-1.54,0.67-2.22c0-0.16-0.03-0.32-0.1-0.48c-0.06-0.16-0.21-0.24-0.43-0.24
			c-0.39,0-1.02,0.14-1.9,0.43c-0.88,0.29-1.82,0.67-2.82,1.16c-1,0.48-1.94,1.04-2.84,1.66c-0.9,0.63-1.54,1.29-1.93,2
			c-0.51,0.9-1.11,2.04-1.78,3.42c-0.67,1.38-1.37,2.83-2.1,4.34c-0.72,1.51-1.42,3-2.1,4.48c-0.67,1.48-1.25,2.75-1.74,3.81
			c-0.39,0.93-0.89,1.77-1.52,2.5c-0.63,0.74-1.31,1.37-2.05,1.88c-0.74,0.51-1.49,0.92-2.26,1.21c-0.77,0.29-1.48,0.43-2.12,0.43
			c-0.74,0-1.33-0.19-1.76-0.58c-0.43-0.38-0.65-1.01-0.65-1.88c0-0.35,0.06-0.79,0.17-1.33c0.11-0.53,0.34-1.12,0.7-1.76
			c0.58-1.09,1.16-2.28,1.76-3.57s1.28-2.75,2.05-4.41c0.77-1.65,1.66-3.55,2.67-5.69c1.01-2.14,2.21-4.6,3.59-7.4
			c-0.45-0.39-0.83-0.86-1.13-1.42c-0.31-0.56-0.46-1.26-0.46-2.1c0-0.77,0.16-1.44,0.48-2c0.32-0.56,0.75-1.02,1.3-1.37
			c0.55-0.35,1.18-0.62,1.9-0.8c0.72-0.18,1.49-0.26,2.29-0.26c0.83,0,1.67,0.07,2.5,0.22c0.84,0.14,1.58,0.36,2.24,0.65
			c0.66,0.29,1.2,0.64,1.61,1.06c0.42,0.42,0.63,0.9,0.63,1.45c0,0.1-0.03,0.23-0.1,0.39c-0.07,0.16-0.14,0.34-0.22,0.53
			c-0.08,0.19-0.15,0.37-0.22,0.53c-0.07,0.16-0.1,0.29-0.1,0.39c0,0.06,0.02,0.1,0.05,0.1h0.05L528.99,545.06z"/>
	</g>
	<g class="st3">
		<path class="st5" d="M342.55,669.38L321,598.98h15.02l14.84,49.49h0.19l15.02-49.49h15.12l-22.12,70.39H342.55z"/>
		<path class="st5" d="M441.65,598.98V612h-35.18v15.08h32.29v12.03h-32.29v17.25h35.93v13.01h-50.58v-70.39H441.65z"/>
		<path class="st5" d="M496.71,668.83c-3.17,1.41-6.38,2.12-9.61,2.12c-5.1,0-9.69-0.94-13.76-2.81c-4.08-1.87-7.51-4.45-10.31-7.74
			c-2.8-3.29-4.95-7.15-6.44-11.58s-2.24-9.22-2.24-14.34c0-5.26,0.75-10.14,2.24-14.64c1.49-4.5,3.64-8.43,6.44-11.78
			c2.8-3.35,6.24-5.98,10.31-7.89c4.07-1.91,8.66-2.86,13.76-2.86c3.42,0,6.73,0.54,9.94,1.63c3.2,1.08,6.1,2.68,8.68,4.78
			c2.58,2.1,4.71,4.7,6.39,7.79c1.68,3.09,2.71,6.64,3.08,10.65h-14c-0.87-3.94-2.55-6.9-5.04-8.87c-2.49-1.97-5.51-2.96-9.05-2.96
			c-3.3,0-6.1,0.67-8.4,2.02c-2.3,1.35-4.17,3.15-5.6,5.42c-1.43,2.27-2.47,4.85-3.13,7.74c-0.65,2.89-0.98,5.88-0.98,8.97
			c0,2.96,0.33,5.83,0.98,8.63c0.65,2.79,1.69,5.31,3.13,7.54c1.43,2.23,3.3,4.03,5.6,5.37c2.3,1.35,5.1,2.02,8.4,2.02
			c4.85,0,8.6-1.3,11.25-3.89c2.64-2.59,4.18-6.36,4.62-11.29h-14.74v-11.54h27.99v38.06h-9.33l-1.49-7.99
			C502.77,664.94,499.88,667.42,496.71,668.83z"/>
		<path class="st5" d="M566.23,598.98l24.92,70.39h-15.21l-5.04-15.68h-24.92l-5.23,15.68h-14.74l25.19-70.39H566.23z
			 M567.07,642.17l-8.4-25.83h-0.19l-8.68,25.83H567.07z"/>
		<path class="st5" d="M613.07,652.03c0.81,1.64,1.88,2.97,3.22,3.99c1.34,1.02,2.91,1.77,4.71,2.27c1.8,0.49,3.67,0.74,5.6,0.74
			c1.31,0,2.71-0.11,4.2-0.35c1.49-0.23,2.89-0.67,4.2-1.33c1.31-0.66,2.39-1.56,3.27-2.71c0.87-1.15,1.31-2.61,1.31-4.39
			c0-1.91-0.58-3.45-1.73-4.63c-1.15-1.18-2.66-2.17-4.53-2.96c-1.87-0.79-3.98-1.48-6.35-2.07c-2.36-0.59-4.76-1.25-7.18-1.97
			c-2.49-0.66-4.92-1.46-7.28-2.42c-2.36-0.95-4.48-2.18-6.34-3.7c-1.87-1.51-3.38-3.4-4.53-5.67c-1.15-2.27-1.73-5.01-1.73-8.23
			c0-3.61,0.73-6.75,2.19-9.42c1.46-2.66,3.37-4.88,5.74-6.65c2.36-1.78,5.04-3.09,8.02-3.94c2.99-0.85,5.97-1.28,8.96-1.28
			c3.48,0,6.83,0.41,10.03,1.23c3.2,0.82,6.05,2.15,8.54,3.99c2.49,1.84,4.46,4.19,5.92,7.05c1.46,2.86,2.19,6.33,2.19,10.4h-14.18
			c-0.13-2.1-0.55-3.85-1.26-5.23c-0.72-1.38-1.67-2.46-2.85-3.25c-1.18-0.79-2.54-1.35-4.06-1.68c-1.53-0.33-3.19-0.49-4.99-0.49
			c-1.18,0-2.37,0.13-3.55,0.39c-1.18,0.26-2.26,0.72-3.22,1.38c-0.96,0.66-1.76,1.48-2.38,2.46c-0.62,0.99-0.93,2.23-0.93,3.75
			c0,1.38,0.25,2.5,0.75,3.35c0.5,0.86,1.48,1.64,2.94,2.37c1.46,0.72,3.48,1.45,6.07,2.17c2.58,0.72,5.96,1.64,10.12,2.76
			c1.24,0.26,2.97,0.74,5.18,1.43c2.21,0.69,4.4,1.79,6.58,3.3c2.18,1.51,4.06,3.53,5.65,6.06c1.59,2.53,2.38,5.77,2.38,9.71
			c0,3.22-0.59,6.21-1.77,8.97c-1.18,2.76-2.94,5.14-5.27,7.15s-5.23,3.57-8.68,4.68c-3.45,1.12-7.45,1.68-11.99,1.68
			c-3.67,0-7.23-0.48-10.68-1.43c-3.45-0.95-6.5-2.45-9.15-4.49c-2.64-2.04-4.74-4.63-6.3-7.79c-1.56-3.16-2.3-6.9-2.24-11.24h14.18
			C611.86,648.38,612.26,650.38,613.07,652.03z"/>
	</g>
	<path class="st6" d="M448.5,324.3l-115.3-24.5l24.8-46.7c0.9-1.4-0.9-2.9-2-2l-46.7,24.8l-24.5-115.3c-0.3-1.7-2.6-1.7-2.9,0
		l-24.5,115.3l-46.7-24.8c-1.4-0.9-2.9,0.9-2,2l24.8,46.7l-115.3,24.5c-1.7,0.3-1.7,2.6,0,2.9l115.3,24.5l-24.8,46.7
		c-0.9,1.4,0.9,2.9,2,2l46.7-24.8l24.5,115.3c0.3,1.7,2.6,1.7,2.9,0l24.5-115.3l46.7,24.8c1.4,0.9,2.9-0.9,2-2l-24.8-46.7
		l115.3-24.5C450.3,326.9,450.3,324.6,448.5,324.3z"/>
	<polygon class="st7" points="283.7,167.5 283.7,325.8 304.4,280.5 	"/>
	<polygon class="st7" points="441.9,325.8 283.7,325.8 328.6,346.5 	"/>
	<polygon class="st7" points="353.4,256.9 283.7,325.8 330.7,298.7 	"/>
	<polygon class="st7" points="214.8,255.7 283.7,325.8 256.3,278.5 	"/>
	<polygon class="st7" points="352.6,395.8 283.7,325.8 310.8,373 	"/>
	<polygon class="st7" points="283.7,484 283.7,325.8 262.9,370.7 	"/>
	<polygon class="st7" points="125.4,325.8 283.7,325.8 238.4,305 	"/>
	<polygon class="st7" points="213.6,394.7 283.7,325.8 236.4,352.9 	"/>
	<circle class="st8" cx="272.4" cy="444.8" r="71.8"/>
	<circle class="st9" cx="272.4" cy="444.8" r="53.3"/>
	<circle class="st8" cx="729.9" cy="444.8" r="71.8"/>
	<circle class="st9" cx="729.9" cy="444.8" r="53.3"/>
	<circle class="st8" cx="577.4" cy="444.8" r="71.8"/>
	<circle class="st9" cx="577.4" cy="444.8" r="53.3"/>
	<circle class="st8" cx="424.9" cy="444.8" r="71.8"/>
	<circle class="st9" cx="424.9" cy="444.8" r="53.3"/>
	<text transform="matrix(1 0 0 1 238.6968 477.6469)" class="st10 st11 st12 st13">C</text>
	<text transform="matrix(1 0 0 1 388.2994 479.1371)" class="st10 st11 st12 st13">O</text>
	<text transform="matrix(1 0 0 1 547.226 477.6469)" class="st10 st11 st12 st13">D</text>
	<text transform="matrix(1 0 0 1 697.1683 477.6469)" class="st10 st11 st12 st13">E</text>
</g>
</svg>
