<?xml version="1.0" encoding="utf-8"?>
<!-- Generator: Adobe Illustrator 26.3.1, SVG Export Plug-In . SVG Version: 6.00 Build 0)  -->
<svg version="1.1" id="Layer_1" xmlns="http://www.w3.org/2000/svg" xmlns:xlink="http://www.w3.org/1999/xlink" x="0px" y="0px"
	 viewBox="0 0 1000 1000" style="enable-background:new 0 0 1000 1000;" xml:space="preserve">
<style type="text/css">
	.st0{fill:#FFFFFE; filter: drop-shadow(0px 7px 6px rgb(0 0 0 / 0.3))}
	.st1{fill:#3A64DB;}
	.st2{fill:url(#SVGID_1_);}
	.st3{fill:#FFFFFF;}
	.st4{fill:#204DEF;}
	.st5{fill:#DB0707;}
	.st6{fill:#EA7636;}
	.st7{fill:#D16733;}
	.st8{fill:#FEFFFF; filter: drop-shadow(0px 5px 6px rgb(0 0 0 / 0.4))}
	.st9{fill:#E2E6F2;}
	.st10{fill:#517DED;}
</style>
<path class="st0" d="M907.5,496.5L522.3,318.6c-11.1-5-24-5-35.5,0l-17.1,6.2l-15.4-8.3V193.4c0-5.3-3.4-9.6-8.7-9.6H314.9
	l-10.1-20.3c-6.7-12.1-22.9-11.4-29.3,0l-9,20.3H137.8c-5.3,0-9.7,4.4-9.7,9.7v130.9l-24.3,13.3c-9.4,6.3-9.3,22.1,0,27l24.3,10.7
	v98.1l-36.2,20.4c-88.9,46.8-67,144.9-1.4,171.8l396.3,175.8c11.1,5,24,5,35.5,0l393-181.4C980,631.3,991,532,907.5,496.5
	L907.5,496.5z"/>
<path class="st1" d="M159.6,222.5v415.6c0,4.2,3.6,7.6,8.1,7.6h15.1c4.5,0,8.1-3.4,8.1-7.6V256.9c0-4.2,3.6-7.6,8.1-7.6h178
	c4.5,0,8.1,3.4,8.1,7.6v426.5c0,4.2,3.6,7.6,8.1,7.6h15.1c4.5,0,8.1-3.4,8.1-7.6V222.5c0-4.2-3.6-7.6-8.1-7.6H167.4
	C163.4,215,159.6,218.3,159.6,222.5z"/>
<radialGradient id="SVGID_1_" cx="502.65" cy="-1738.2723" r="339.7725" gradientTransform="matrix(1 0 0 -1 0 -1160.3599)" gradientUnits="userSpaceOnUse">
	<stop  offset="0" style="stop-color:#FCCE06"/>
	<stop  offset="3.000000e-02" style="stop-color:#FCCE06"/>
	<stop  offset="4.000000e-02" style="stop-color:#FCCD06"/>
	<stop  offset="7.000000e-02" style="stop-color:#FCCC06"/>
	<stop  offset="0.12" style="stop-color:#FCCC06"/>
	<stop  offset="0.14" style="stop-color:#FCCB07"/>
	<stop  offset="0.16" style="stop-color:#FCCB07"/>
	<stop  offset="0.18" style="stop-color:#FCCA07"/>
	<stop  offset="0.21" style="stop-color:#FCC907"/>
	<stop  offset="0.23" style="stop-color:#FCC907"/>
	<stop  offset="0.24" style="stop-color:#FBC807"/>
	<stop  offset="0.27" style="stop-color:#FBC707"/>
	<stop  offset="0.27" style="stop-color:#FBC707"/>
	<stop  offset="0.28" style="stop-color:#FBC607"/>
	<stop  offset="0.3" style="stop-color:#FBC607"/>
	<stop  offset="0.31" style="stop-color:#FBC607"/>
	<stop  offset="0.32" style="stop-color:#FBC508"/>
	<stop  offset="0.32" style="stop-color:#FBC508"/>
	<stop  offset="0.33" style="stop-color:#FBC408"/>
	<stop  offset="0.35" style="stop-color:#FBC408"/>
	<stop  offset="0.36" style="stop-color:#FBC308"/>
	<stop  offset="0.36" style="stop-color:#FBC308"/>
	<stop  offset="0.37" style="stop-color:#FBC208"/>
	<stop  offset="0.38" style="stop-color:#FBC208"/>
	<stop  offset="0.39" style="stop-color:#FBC108"/>
	<stop  offset="0.41" style="stop-color:#FBC008"/>
	<stop  offset="0.42" style="stop-color:#FBBF09"/>
	<stop  offset="0.43" style="stop-color:#FBBE09"/>
	<stop  offset="0.44" style="stop-color:#FBBE09"/>
	<stop  offset="0.46" style="stop-color:#FBBD09"/>
	<stop  offset="0.46" style="stop-color:#FABC09"/>
	<stop  offset="0.47" style="stop-color:#FABC09"/>
	<stop  offset="0.48" style="stop-color:#FABB09"/>
	<stop  offset="0.48" style="stop-color:#FABA09"/>
	<stop  offset="0.49" style="stop-color:#FAB909"/>
	<stop  offset="0.51" style="stop-color:#FAB80A"/>
	<stop  offset="0.54" style="stop-color:#FAB80A"/>
	<stop  offset="0.55" style="stop-color:#FAB70A"/>
	<stop  offset="0.55" style="stop-color:#FAB70A"/>
	<stop  offset="0.55" style="stop-color:#FAB60A"/>
	<stop  offset="0.56" style="stop-color:#FAB60A"/>
	<stop  offset="0.56" style="stop-color:#FAB50A"/>
	<stop  offset="0.57" style="stop-color:#FAB40A"/>
	<stop  offset="0.59" style="stop-color:#FAB40A"/>
	<stop  offset="0.59" style="stop-color:#FAB30B"/>
	<stop  offset="0.6" style="stop-color:#FAB20B"/>
	<stop  offset="0.61" style="stop-color:#FAB10B"/>
	<stop  offset="0.61" style="stop-color:#FAB10B"/>
	<stop  offset="0.61" style="stop-color:#F9B00B"/>
	<stop  offset="0.62" style="stop-color:#F9AF0B"/>
	<stop  offset="0.64" style="stop-color:#F9AE0B"/>
	<stop  offset="0.64" style="stop-color:#F9AE0B"/>
	<stop  offset="0.65" style="stop-color:#F9AD0C"/>
	<stop  offset="0.66" style="stop-color:#F9AD0C"/>
	<stop  offset="0.68" style="stop-color:#F9AC0C"/>
	<stop  offset="0.68" style="stop-color:#F9AB0C"/>
	<stop  offset="0.69" style="stop-color:#F9AA0C"/>
	<stop  offset="0.69" style="stop-color:#F9AA0C"/>
	<stop  offset="0.7" style="stop-color:#F9A90C"/>
	<stop  offset="0.71" style="stop-color:#F9A80C"/>
	<stop  offset="0.71" style="stop-color:#F9A80D"/>
	<stop  offset="0.72" style="stop-color:#F9A70D"/>
	<stop  offset="0.73" style="stop-color:#F9A60D"/>
	<stop  offset="0.73" style="stop-color:#F9A50D"/>
	<stop  offset="0.74" style="stop-color:#F8A40D"/>
	<stop  offset="0.75" style="stop-color:#F8A30D"/>
	<stop  offset="0.76" style="stop-color:#F8A30D"/>
	<stop  offset="0.77" style="stop-color:#F8A20E"/>
	<stop  offset="0.77" style="stop-color:#F8A10E"/>
	<stop  offset="0.78" style="stop-color:#F8A10E"/>
	<stop  offset="0.78" style="stop-color:#F8A00E"/>
	<stop  offset="0.79" style="stop-color:#F8A00E"/>
	<stop  offset="0.8" style="stop-color:#F89F0E"/>
	<stop  offset="0.8" style="stop-color:#F89F0E"/>
	<stop  offset="0.8" style="stop-color:#F89E0E"/>
	<stop  offset="0.81" style="stop-color:#F89E0E"/>
	<stop  offset="0.81" style="stop-color:#F89E0E"/>
	<stop  offset="0.82" style="stop-color:#F89D0E"/>
	<stop  offset="0.82" style="stop-color:#F89C0F"/>
	<stop  offset="0.83" style="stop-color:#F89B0F"/>
	<stop  offset="0.84" style="stop-color:#F89A0F"/>
	<stop  offset="0.85" style="stop-color:#F89A0F"/>
	<stop  offset="0.85" style="stop-color:#F8990F"/>
	<stop  offset="0.86" style="stop-color:#F8980F"/>
	<stop  offset="0.86" style="stop-color:#F7970F"/>
	<stop  offset="0.87" style="stop-color:#F7960F"/>
	<stop  offset="0.88" style="stop-color:#F79510"/>
	<stop  offset="0.88" style="stop-color:#F79510"/>
	<stop  offset="0.89" style="stop-color:#F79410"/>
	<stop  offset="0.89" style="stop-color:#F79410"/>
	<stop  offset="0.89" style="stop-color:#F79410"/>
	<stop  offset="0.9" style="stop-color:#F79310"/>
	<stop  offset="0.9" style="stop-color:#F79210"/>
	<stop  offset="0.91" style="stop-color:#F79210"/>
	<stop  offset="0.92" style="stop-color:#F79110"/>
	<stop  offset="0.93" style="stop-color:#F79011"/>
	<stop  offset="0.93" style="stop-color:#F79011"/>
	<stop  offset="0.93" style="stop-color:#F78F11"/>
	<stop  offset="0.94" style="stop-color:#F78E11"/>
	<stop  offset="0.95" style="stop-color:#F78D11"/>
	<stop  offset="0.95" style="stop-color:#F78D11"/>
	<stop  offset="0.95" style="stop-color:#F68C11"/>
	<stop  offset="0.96" style="stop-color:#F68C11"/>
	<stop  offset="0.96" style="stop-color:#F68B11"/>
	<stop  offset="0.97" style="stop-color:#F68A12"/>
	<stop  offset="0.98" style="stop-color:#F68912"/>
	<stop  offset="0.98" style="stop-color:#F68812"/>
	<stop  offset="0.99" style="stop-color:#F68812"/>
	<stop  offset="0.99" style="stop-color:#F68712"/>
	<stop  offset="1" style="stop-color:#F68712"/>
</radialGradient>
<path class="st2" d="M487.4,796.7L109.5,628.9c-44.1-19.6-44.1-82.4,0-102l377.9-167.7c9.8-4.2,20.7-4.2,30.5,0l377.9,167.7
	c44.1,19.6,44.1,82.4,0,102L517.9,796.7C508.1,800.8,496.9,800.8,487.4,796.7L487.4,796.7z"/>
<path class="st3" d="M493.8,767.9L119.3,601.5c-20.7-9.2-20.7-38.6,0-47.8l374.5-166.3c2.8-1.2,5.9-1.2,8.3,0l374.5,166.3
	c20.7,9.2,20.7,38.6,0,47.8L502.3,767.9C499.8,768.9,496.6,768.9,493.8,767.9z"/>
<path class="st4" d="M481.8,563.3c-1.6,0-3.1,0.1-4.6,0.1c-1.4,0-2.9,0-4.2,0.1c-1.4,0-2.7,0-4.1,0h-4.1c-0.8,1.6-1.7,3.4-2.7,5.5
	s-2.1,4.3-3.2,6.6s-2.2,4.6-3.3,7c-1.1,2.3-2.2,4.6-3.1,6.7c-1,2.1-1.9,4-2.7,5.7c-0.8,1.7-1.5,3-2,4c-0.3,0.7-0.8,1.4-1.3,2
	s-1,1.1-1.6,1.6c-0.6,0.4-1.2,0.8-1.8,1s-1.2,0.3-1.7,0.3c-0.8,0-1.4-0.2-2-0.6c-0.6-0.4-0.9-1-0.9-1.8c0-0.4,0.1-0.9,0.3-1.4
	c0.2-0.5,0.5-1.2,0.8-1.9l16.5-35h-2.5c-1.7,0-2.9-0.3-3.5-0.8s-0.9-1.2-0.9-1.9s0.4-1.5,1.2-2.2c0.8-0.7,1.9-1,3.4-1h5.5
	c2.2-4.5,4.4-8.1,6.7-11c2.2-2.9,4.4-5.2,6.6-6.9s4.2-2.8,6.3-3.5s4-1,5.9-1c0.9,0,1.7,0.2,2.5,0.5s1.5,0.9,2.1,1.5
	c0.6,0.7,1.1,1.5,1.5,2.6c0.4,1,0.6,2.3,0.6,3.7s-0.2,2.8-0.6,4.4c-0.1,0.4-0.3,0.8-0.6,1.1c-0.3,0.3-0.6,0.5-0.9,0.7
	s-0.7,0.3-1,0.4s-0.6,0.1-0.9,0.1c-0.6,0-1.2-0.1-1.7-0.4s-0.8-0.8-0.8-1.4c0-0.4,0-0.8,0.1-1.1c0-0.3,0.1-0.7,0.1-1
	c0-1.3-0.2-2.2-0.7-2.8s-1.1-0.8-1.9-0.8c-1,0-2.1,0.4-3.4,1.3s-2.6,2-3.9,3.4s-2.6,3-3.8,4.8c-1.2,1.8-2.2,3.6-3,5.5H479
	c1,0,1.9,0,2.7,0c0.9,0,1.6,0.1,2.2,0.3s1.1,0.4,1.5,0.8c0.4,0.4,0.5,0.9,0.5,1.6c0,0.3,0,0.7-0.2,1s-0.3,0.7-0.6,1
	c-0.3,0.3-0.7,0.5-1.2,0.8C483.3,563.1,482.6,563.3,481.8,563.3z M441.3,604.5c-0.9,0-1.6-0.2-2.3-0.6c-0.7-0.5-1.1-1.2-1.1-2.2
	c0-0.5,0.1-1,0.3-1.6c0.2-0.6,0.5-1.2,0.8-1.9l16.1-34.2h-1.7c-1.9,0-3.1-0.3-3.8-0.9c-0.7-0.6-1.1-1.4-1.1-2.2s0.5-1.8,1.3-2.5
	c0.9-0.8,2.1-1.2,3.7-1.2h5.2c2.2-4.4,4.4-8,6.6-10.8c2.3-3,4.5-5.3,6.7-7s4.4-2.9,6.4-3.6c2.1-0.7,4.1-1,6-1c0.9,0,1.8,0.2,2.7,0.5
	c0.9,0.4,1.6,0.9,2.3,1.7c0.6,0.7,1.1,1.6,1.6,2.8c0.4,1.1,0.6,2.4,0.6,3.8s-0.2,2.9-0.6,4.5c-0.1,0.5-0.4,1-0.7,1.3
	c-0.3,0.3-0.6,0.5-1,0.8c-0.5,0.2-0.8,0.4-1.2,0.5c-0.3,0.1-0.7,0.1-1,0.1c-0.7,0-1.4-0.2-2-0.5c-0.7-0.4-1-1-1-1.8
	c0-0.5,0-0.8,0.1-1.2c0-0.3,0.1-0.6,0.1-1c0-1.2-0.2-2-0.6-2.5c-0.9-1.1-2.6-0.9-4.7,0.5c-1.3,0.8-2.6,2-3.8,3.3
	c-1.3,1.4-2.6,3-3.8,4.7c-1,1.6-1.9,3.1-2.6,4.7H479c1,0,1.9,0,2.7,0c0.8,0,1.6,0.1,2.3,0.3c0.7,0.2,1.3,0.5,1.8,0.9
	c0.4,0.5,0.7,1.1,0.7,1.9c0,0.4-0.1,0.8-0.2,1.2s-0.4,0.8-0.7,1.1c-0.4,0.4-0.8,0.6-1.4,0.9c-0.6,0.3-1.4,0.4-2.3,0.5l0,0h-1.5
	c-1.1,0-2.1,0.1-3.1,0.1c-1.2,0-2.5,0-3.6,0.1H473c-1.4,0-2.7,0-4.1,0h-3.8c-0.8,1.5-1.6,3.2-2.6,5.3l-3.2,6.6
	c-0.9,1.9-1.8,3.9-2.8,5.8l-0.8,1.6c-1,2.2-2,4.3-2.9,6.2l-1.2,2.5c-0.5,1.2-1.1,2.2-1.5,3.2c-0.8,1.7-1.5,3.1-2,4
	c-0.3,0.7-0.8,1.4-1.3,2.1c-0.5,0.6-1.1,1.2-1.7,1.7c-0.7,0.5-1.3,0.8-1.9,1.1C442.6,604.4,442,604.5,441.3,604.5L441.3,604.5z
	 M453.7,558c-1.4,0-2.4,0.3-3.1,0.9c-0.7,0.6-1,1.2-1,1.8s0.2,1.1,0.8,1.5c0.4,0.3,1.2,0.7,3.2,0.7h3.3L440,598.6
	c-0.3,0.6-0.6,1.3-0.8,1.8c-0.2,0.5-0.2,0.9-0.2,1.3c0,0.7,0.2,1.1,0.7,1.4c0.9,0.6,2,0.7,3.3,0.2c0.6-0.2,1.1-0.5,1.7-1
	c0.6-0.4,1.1-0.9,1.5-1.5c0.5-0.6,0.9-1.2,1.2-1.9c0.5-1,1.1-2.3,2-4c0.5-1,1-2.1,1.5-3.2l1.2-2.5c0.9-2,1.9-4.1,2.9-6.2l0.8-1.6
	c0.9-2,1.8-3.9,2.8-5.8l3.2-6.6c1-2.2,1.9-4,2.7-5.5l0.1-0.3h4.4c1.3,0,2.7,0,4,0h0.6c1.2,0,2.4,0,3.6-0.1c1,0,2,0,3.1-0.1h1.5
	c0.8,0,1.4-0.2,2-0.4c0.5-0.2,0.8-0.4,1.1-0.6c0.2-0.2,0.4-0.5,0.5-0.8c0.1-0.2,0.1-0.5,0.1-0.8c0-0.5-0.1-1-0.4-1.2
	c-0.3-0.3-0.7-0.5-1.3-0.7c-0.6-0.2-1.4-0.2-2.1-0.3c-0.8,0-1.7,0-2.7,0h-11.6l0.3-0.7c0.8-1.8,1.8-3.7,3-5.6
	c1.2-1.8,2.5-3.4,3.9-4.8c1.3-1.4,2.7-2.5,4-3.4c2.5-1.7,4.7-1.8,6-0.3c0.6,0.7,0.9,1.7,0.9,3.1c0,0.4,0,0.7-0.1,1.1
	c0,0.3-0.1,0.7-0.1,1.1c0,0.4,0.2,0.7,0.5,1c0.4,0.2,0.9,0.4,1.5,0.4c0.2,0,0.5-0.1,0.8-0.1s0.5-0.2,0.9-0.3
	c0.3-0.2,0.6-0.4,0.8-0.6c0.2-0.2,0.4-0.5,0.4-0.9c0.4-1.5,0.5-3,0.5-4.3s-0.2-2.5-0.5-3.5c-0.4-1-0.8-1.8-1.4-2.4
	c-0.5-0.6-1.2-1.1-1.9-1.4c-0.7-0.3-1.5-0.5-2.3-0.5c-1.8,0-3.7,0.3-5.7,1c-2,0.6-4,1.8-6.1,3.4c-2.1,1.7-4.2,3.9-6.5,6.8
	c-2.2,2.8-4.4,6.5-6.6,10.9l-0.1,0.3L453.7,558L453.7,558z M493.5,555.9c1.2,0,2.5,0.2,3.8,0.5c1.4,0.3,2.6,0.8,3.8,1.6
	c1.1,0.8,2.1,1.7,2.9,3c0.8,1.2,1.1,2.8,1.1,4.6c0,0.9-0.1,2-0.4,3.2s-0.6,2.5-1.1,3.8c0.3,0.4,0.7,0.6,1.1,0.8s0.9,0.2,1.3,0.2
	c0.6,0,1.4-0.2,2.2-0.6s1.6-0.9,2.5-1.4c0.9-0.6,1.7-1.3,2.5-2c0.8-0.8,1.6-1.5,2.4-2.2s1.4-1.5,2-2.1s1.1-1.2,1.5-1.7
	c0.2-0.2,0.5-0.3,0.8-0.3c0.4,0,0.8,0.2,1.2,0.7c0.3,0.5,0.5,1.1,0.5,1.9s-0.2,1.7-0.7,2.8s-1.4,2.2-2.7,3.3
	c-0.8,0.8-1.6,1.7-2.6,2.8s-2,2.1-3.1,3c-1.1,0.9-2.2,1.7-3.4,2.4c-1.2,0.7-2.4,1-3.5,1c-0.8,0-1.6-0.1-2.4-0.4
	c-0.8-0.2-1.5-0.7-2.3-1.2c-1.1,1.7-2.4,3.3-3.8,4.8s-3,2.7-4.8,3.7s-3.6,1.8-5.7,2.4c-2,0.6-4.2,0.9-6.5,0.9c-0.9,0-1.9-0.2-3-0.5
	s-2.2-0.9-3.3-1.7c-1-0.8-1.9-1.8-2.6-3.1s-1.1-2.8-1.1-4.7c0-1.2,0.2-2.7,0.6-4.5c0.4-1.7,1-3.5,1.8-5.4s1.9-3.7,3.1-5.5
	s2.8-3.5,4.5-4.9s3.7-2.6,6-3.5C488.3,556.3,490.8,555.9,493.5,555.9L493.5,555.9z M491.1,564.1c-1.5,0-2.9,0.4-4.2,1.1
	c-1.4,0.7-2.5,1.7-3.6,2.9c-1,1.2-1.9,2.5-2.5,4.1c-0.6,1.5-0.9,3.1-0.9,4.7c0,0.6,0,1.2,0.1,1.9s0.3,1.3,0.6,2
	c0.3,0.6,0.7,1.1,1.3,1.5c0.6,0.4,1.3,0.6,2.2,0.6c1.4,0,2.8-0.4,4.2-1.2s2.6-1.8,3.6-3c1.1-1.2,1.9-2.6,2.5-4.2
	c0.6-1.6,0.9-3.1,0.9-4.7c0-0.6,0-1.3-0.1-1.9s-0.3-1.3-0.6-1.8c-0.3-0.5-0.7-1-1.3-1.4C492.8,564.3,492,564.1,491.1,564.1
	L491.1,564.1z M480,591.6c-0.9,0-2-0.2-3.2-0.5s-2.4-1-3.5-1.8s-2-1.9-2.8-3.3c-0.8-1.3-1.1-3-1.1-4.9c0-1.3,0.2-2.8,0.6-4.6
	s1-3.6,1.9-5.5c0.8-1.8,1.9-3.7,3.2-5.6c1.3-1.9,2.8-3.5,4.6-5c1.8-1.5,3.9-2.7,6.1-3.6c2.2-0.9,4.8-1.4,7.6-1.4
	c1.2,0,2.6,0.2,3.9,0.5c1.4,0.3,2.7,0.9,3.9,1.7c1.2,0.8,2.2,1.8,3,3.1s1.2,2.9,1.2,4.8c0,1-0.1,2-0.4,3.3c-0.2,1.2-0.6,2.3-1,3.5
	c0.2,0.2,0.4,0.3,0.7,0.4c0.9,0.3,1.9,0.2,3.1-0.3c0.8-0.4,1.6-0.8,2.4-1.4c0.9-0.6,1.7-1.2,2.5-2c0.8-0.7,1.6-1.4,2.4-2.2
	c0.8-0.8,1.5-1.5,2-2.1c0.5-0.5,0.9-1,1.2-1.4l0.3-0.3c0.8-0.8,1.9-0.6,2.7,0.4c0.4,0.6,0.6,1.3,0.6,2.2s-0.3,1.9-0.8,3
	s-1.5,2.3-2.8,3.5c-0.7,0.8-1.6,1.7-2.5,2.8c-1,1.1-2,2.1-3.1,3c-1.1,0.9-2.2,1.7-3.5,2.4c-2.1,1.2-4.3,1.3-6.3,0.6
	c-0.7-0.2-1.3-0.5-2-1c-1.1,1.6-2.3,3.1-3.6,4.4c-1.5,1.5-3.1,2.8-4.9,3.8c-1.8,1.1-3.7,1.9-5.8,2.5
	C484.5,591.4,482.3,591.7,480,591.6L480,591.6z M493.5,556.4c-2.8,0-5.1,0.4-7.3,1.3c-2.2,0.8-4.1,2-5.9,3.4c-1.7,1.4-3.2,3-4.4,4.8
	c-1.3,1.8-2.3,3.6-3.1,5.4c-0.8,1.8-1.4,3.6-1.8,5.3c-0.4,1.8-0.6,3.2-0.6,4.4c0,1.8,0.3,3.2,1,4.4s1.5,2.2,2.5,3s2,1.3,3.1,1.6
	s2.1,0.5,2.9,0.5c2.2,0,4.4-0.3,6.4-0.8c2-0.6,3.8-1.3,5.6-2.4c1.7-1,3.3-2.2,4.7-3.6c1.4-1.4,2.6-2.9,3.8-4.7l0.3-0.4l0.4,0.3
	c0.8,0.5,1.5,0.9,2.2,1.1c1.7,0.6,3.6,0.5,5.5-0.6c1.2-0.7,2.3-1.5,3.3-2.3c1.1-0.9,2.1-1.9,3-3c1-1.1,1.8-2,2.6-2.8
	c1.3-1.1,2.1-2.2,2.6-3.2s0.7-1.9,0.7-2.6s-0.1-1.2-0.4-1.6c-0.4-0.5-0.9-0.6-1.2-0.3l-0.2,0.3c-0.3,0.4-0.8,0.9-1.2,1.4
	c-0.5,0.6-1.2,1.3-2.1,2.1s-1.6,1.5-2.4,2.3c-0.8,0.7-1.7,1.4-2.6,2s-1.7,1.1-2.5,1.5c-1.4,0.7-2.7,0.8-3.9,0.3
	c-0.5-0.2-0.9-0.5-1.3-0.9l-0.2-0.2l0.1-0.3c0.5-1.3,0.9-2.5,1.1-3.7s0.4-2.2,0.4-3.1c0-1.7-0.4-3.1-1.1-4.3s-1.6-2.1-2.7-2.8
	s-2.3-1.2-3.6-1.5C495.9,556.6,494.7,556.4,493.5,556.4L493.5,556.4z M484.1,583.4c-1,0-1.9-0.2-2.5-0.7s-1.1-1-1.4-1.7
	c-0.3-0.6-0.5-1.3-0.6-2.1c-0.1-0.7-0.1-1.3-0.1-2c0-1.6,0.3-3.3,1-4.8c0.6-1.5,1.5-3,2.6-4.2s2.4-2.3,3.7-3c1.4-0.8,3-1.2,4.5-1.2
	c1,0,1.9,0.2,2.5,0.6c0.6,0.4,1.1,0.9,1.5,1.6c0.3,0.6,0.5,1.3,0.6,2s0.1,1.4,0.1,2c0,1.7-0.3,3.3-1,4.9c-0.6,1.6-1.5,3-2.6,4.3
	c-1.1,1.2-2.3,2.3-3.8,3.1C487.1,582.9,485.6,583.3,484.1,583.4L484.1,583.4z M491.1,564.6c-1.4,0-2.7,0.3-4,1s-2.5,1.6-3.5,2.8
	s-1.8,2.5-2.4,3.9c-0.6,1.5-0.9,3-0.9,4.5c0,0.6,0,1.2,0.1,1.9s0.3,1.3,0.5,1.8s0.6,1,1.1,1.3s1.1,0.5,2,0.5c1.4,0,2.7-0.4,3.9-1.1
	c1.3-0.8,2.5-1.7,3.5-2.9s1.8-2.5,2.5-4c0.6-1.5,0.9-3,0.9-4.5c0-0.6,0-1.2-0.1-1.9c-0.1-0.6-0.2-1.2-0.5-1.7s-0.6-0.9-1.1-1.2
	C492.6,564.8,491.9,564.6,491.1,564.6L491.1,564.6z M529.1,562.6c1.2-0.8,2.5-1.4,3.8-2.1c1.3-0.6,2.5-1.2,3.8-1.6
	c1.2-0.4,2.4-0.8,3.5-1.1s2.1-0.4,3-0.4c1.4,0,2.5,0.3,3.2,1s1.2,1.8,1.2,3.4c0,0.3,0,0.7,0,1.1c0,0.4-0.1,0.8-0.2,1.2
	c-0.2,0.8-0.6,1.8-1.4,2.8c-0.8,1.1-1.7,2.2-2.7,3.4s-2.2,2.4-3.4,3.6l-3.3,3.3c-1,1-1.8,1.9-2.5,2.6c-0.7,0.8-1,1.3-1,1.5
	s0,0.4,0,0.5s0.2,0.1,0.4,0.1c1.7-0.7,3.5-1.6,5.6-2.6s4.1-2,6.2-3.1s4-2.1,5.8-3.1s3.4-1.9,4.7-2.6c0.3-0.2,0.6-0.3,0.9-0.4
	c0.3-0.1,0.6-0.2,0.8-0.2c0.6,0,1,0.2,1.4,0.6c0.4,0.4,0.6,0.9,0.6,1.5c0,0.7-0.3,1.5-0.9,2.5s-1.6,1.9-3.1,2.9
	c-1.1,0.7-2.3,1.5-3.7,2.3c-1.3,0.9-2.8,1.7-4.2,2.7c-1.5,0.9-3,1.8-4.5,2.7s-3,1.7-4.4,2.3s-2.7,1.2-3.9,1.7
	c-1.2,0.4-2.3,0.6-3.2,0.6c-2.2,0-3.8-0.5-4.8-1.5c-1.1-1-1.6-2.3-1.6-4c0-0.2,0-0.4,0-0.6c0.2-1.4,0.6-2.7,1.2-4s1.3-2.5,2-3.6
	s1.5-2.2,2.3-3.3c0.8-1,1.5-2,2.2-3s1.2-1.8,1.7-2.5s0.7-1.5,0.7-2.2c0-0.2,0-0.3-0.1-0.5c0-0.2-0.2-0.2-0.4-0.2
	c-0.4,0-1,0.1-1.8,0.4c-0.9,0.3-1.8,0.7-2.7,1.1c-1,0.5-1.9,1-2.8,1.6c-0.9,0.6-1.5,1.2-1.9,1.9c-0.5,0.9-1.1,2-1.7,3.3
	c-0.7,1.3-1.3,2.7-2,4.2s-1.4,2.9-2,4.3c-0.7,1.4-1.2,2.7-1.7,3.7c-0.4,0.9-0.9,1.7-1.5,2.4s-1.3,1.3-2,1.8s-1.4,0.9-2.2,1.2
	s-1.4,0.4-2.1,0.4s-1.3-0.2-1.7-0.6c-0.4-0.4-0.6-1-0.6-1.8c0-0.3,0-0.8,0.2-1.3c0.1-0.5,0.3-1.1,0.7-1.7c0.6-1.1,1.1-2.2,1.7-3.5
	c0.6-1.2,1.2-2.7,2-4.3s1.6-3.5,2.6-5.5c1-2.1,2.2-4.5,3.5-7.2c-0.4-0.4-0.8-0.8-1.1-1.4c-0.3-0.5-0.4-1.2-0.4-2s0.2-1.4,0.5-1.9
	s0.7-1,1.3-1.3s1.2-0.6,1.8-0.8c0.7-0.2,1.4-0.2,2.2-0.2s1.6,0.1,2.4,0.2c0.8,0.1,1.5,0.3,2.2,0.6c0.6,0.3,1.2,0.6,1.6,1
	c0.4,0.4,0.6,0.9,0.6,1.4c0,0.1,0,0.2-0.1,0.4s-0.1,0.3-0.2,0.5c-0.1,0.2-0.1,0.4-0.2,0.5c-0.1,0.2-0.1,0.3-0.1,0.4v0.1l0,0
	L529.1,562.6L529.1,562.6z M510.2,591.5c-0.9,0-1.5-0.2-2-0.7s-0.8-1.2-0.8-2.2c0-0.4,0.1-0.9,0.2-1.4c0.1-0.6,0.4-1.2,0.7-1.8
	c0.6-1.1,1.1-2.2,1.7-3.4s1.2-2.7,2-4.3l0.7-1.5c0.6-1.2,1.2-2.6,1.9-4c0.9-2,2.1-4.3,3.3-6.8c-0.4-0.4-0.7-0.8-0.9-1.3
	c-0.3-0.6-0.5-1.3-0.5-2.3c0-0.8,0.2-1.6,0.5-2.2c0.3-0.6,0.8-1.1,1.4-1.5c0.6-0.4,1.2-0.7,2-0.8c1.4-0.4,3.2-0.3,4.9,0
	c0.8,0.1,1.6,0.4,2.3,0.7s1.3,0.7,1.7,1.1c0.5,0.5,0.8,1.1,0.8,1.8c0,0.2,0,0.4-0.2,0.6c0,0.1-0.1,0.2-0.1,0.3l0,0
	c0.9-0.5,1.9-1,2.9-1.5c1.3-0.6,2.6-1.2,3.8-1.6c1.3-0.5,2.5-0.8,3.5-1.1c1.2-0.3,2.2-0.4,3.1-0.4c1.5,0,2.7,0.4,3.6,1.1
	c0.9,0.8,1.3,2,1.3,3.8c0,0.3,0,0.7,0,1.1c0,0.5-0.1,0.9-0.2,1.3c-0.2,0.9-0.7,1.9-1.5,3.1c-0.8,1.2-1.8,2.3-2.8,3.5
	s-2.2,2.4-3.4,3.6l-3.3,3.3c-0.9,0.9-1.8,1.8-2.5,2.6c-0.8,0.9-0.9,1.2-0.9,1.2s0,0,0,0.1c1.6-0.7,3.3-1.5,5.4-2.5
	c2.1-1,4.1-2,6.2-3.1c2-1,4-2.1,5.8-3.1s3.4-1.9,4.7-2.6c0.3-0.2,0.7-0.3,1-0.4c1-0.4,2.1-0.2,2.8,0.5c0.5,0.5,0.7,1.1,0.7,1.8
	c0,0.8-0.3,1.7-1,2.7s-1.7,2-3.2,3c-0.5,0.3-1,0.7-1.6,1c-0.7,0.4-1.4,0.9-2.1,1.3c-0.9,0.6-1.8,1.2-2.8,1.8l-1.4,0.9
	c-1.3,0.8-2.7,1.6-4.5,2.7c-1.4,0.8-2.9,1.6-4.4,2.4c-1.5,0.7-2.8,1.3-4,1.7c-1.3,0.4-2.4,0.7-3.4,0.7c-2.3,0-4-0.5-5.2-1.7
	c-1.2-1.1-1.8-2.6-1.8-4.3c0-0.3,0-0.5,0-0.6c0.2-1.4,0.7-2.8,1.2-4.1c0.6-1.3,1.3-2.5,2-3.7c0.8-1.2,1.5-2.3,2.4-3.3
	c0.8-1,1.5-2,2.2-2.9c0.6-0.9,1.2-1.7,1.6-2.5c0.4-0.7,0.6-1.3,0.6-1.9c0-0.1,0-0.1,0-0.2c-0.3,0-0.9,0.1-1.7,0.4
	c-0.8,0.3-1.7,0.6-2.7,1.1s-1.9,1-2.7,1.6s-1.4,1.2-1.7,1.8c-0.5,0.9-1.1,2-1.7,3.3l-2.5,5.2c-0.5,1.1-1.1,2.2-1.6,3.3l-0.2,0.5
	c-0.5,1.2-1,2.3-1.5,3.2c-0.4,0.9-0.9,1.8-1.5,2.5c-0.7,0.8-1.3,1.4-2.1,1.9s-1.5,0.9-2.3,1.2C511.7,591.4,510.9,591.6,510.2,591.5
	L510.2,591.5z M522.8,558c-0.8,0-1.5,0.1-2.1,0.2c-0.6,0.2-1.2,0.4-1.7,0.7s-0.8,0.7-1.1,1.2s-0.4,1-0.4,1.7c0,0.8,0.1,1.3,0.4,1.8
	c0.2,0.5,0.6,0.9,1,1.2l0.3,0.2l-0.2,0.3c-1.3,2.7-2.5,5.1-3.5,7.2c-0.7,1.5-1.3,2.8-1.9,4l-0.7,1.5c-0.7,1.6-1.4,3-2,4.3
	c-0.5,1.2-1.1,2.4-1.7,3.5c-0.3,0.6-0.5,1.1-0.6,1.6s-0.1,0.9-0.1,1.2c0,0.5,0.1,1.1,0.5,1.5c0.6,0.6,1.9,0.6,3.2,0
	c0.7-0.3,1.4-0.6,2.1-1.1c0.7-0.5,1.3-1,1.9-1.7c0.6-0.7,1-1.5,1.4-2.3c0.4-0.9,0.9-2,1.5-3.2l0.2-0.5c0.5-1.1,1-2.2,1.6-3.4
	l2.5-5.2c0.7-1.3,1.2-2.5,1.7-3.3c0.4-0.8,1.1-1.4,2-2.1c0.9-0.6,1.8-1.2,2.8-1.7s1.9-0.9,2.8-1.2c0.9-0.3,1.6-0.4,2-0.4
	s0.8,0.2,0.9,0.6c0.1,0.2,0.1,0.4,0.1,0.6c0,0.8-0.2,1.6-0.7,2.4c-0.5,0.8-1,1.7-1.7,2.6c-0.7,0.9-1.4,1.9-2.2,3
	c-0.8,1-1.6,2.1-2.3,3.2c-0.7,1.2-1.4,2.3-2,3.6c-0.6,1.2-1,2.5-1.2,3.8c0,0.1,0,0.3,0,0.5c0,1.5,0.5,2.7,1.5,3.6
	c1,0.9,2.5,1.4,4.5,1.4c0.8,0,1.8-0.2,3-0.6c1.2-0.4,2.4-0.9,3.9-1.6c1.5-0.8,3-1.5,4.3-2.3c1.8-1,3.2-1.9,4.5-2.7l1.4-0.9
	c1-0.6,1.9-1.2,2.8-1.8c0.7-0.5,1.4-0.9,2.1-1.3c0.5-0.3,1.1-0.7,1.5-1c1.3-0.9,2.3-1.8,2.9-2.7c0.5-0.8,0.8-1.6,0.8-2.2
	c0-0.5-0.1-0.9-0.4-1.2c-0.3-0.3-0.6-0.4-1-0.4c-0.1,0-0.4,0-0.6,0.1c-0.2,0.1-0.5,0.2-0.8,0.4c-1.3,0.7-2.8,1.6-4.7,2.6
	s-3.8,2.1-5.8,3.1c-2.1,1-4.1,2.1-6.2,3.1c-2.1,1-4,1.9-5.7,2.6h-0.2c-0.5,0-0.8-0.2-0.9-0.5c0-0.2-0.1-0.4-0.1-0.7
	c0-0.4,0.3-1,1.1-1.9c0.8-0.8,1.6-1.7,2.5-2.7l3.3-3.3c1.2-1.2,2.3-2.4,3.3-3.6c1-1.1,1.9-2.2,2.7-3.4c0.7-1,1.2-1.9,1.3-2.7
	c0.1-0.4,0.1-0.8,0.2-1.2c0-0.4,0-0.7,0-1c0-1.4-0.3-2.4-1-3c-1.1-1-2.9-1.2-5.8-0.5c-1,0.3-2.2,0.6-3.4,1s-2.4,1-3.7,1.6
	c-1.4,0.7-2.6,1.3-3.7,2l-0.4,0.1c-0.3,0-0.6-0.3-0.6-0.6c0-0.2,0-0.4,0.2-0.6c0-0.1,0.1-0.2,0.1-0.3l0.2-0.4c0-0.1,0.1-0.2,0.1-0.3
	s0-0.2,0-0.2c0-0.4-0.2-0.7-0.5-1.1c-0.4-0.4-0.8-0.7-1.4-0.9s-1.3-0.5-2-0.6C524.3,558.1,523.6,558,522.8,558L522.8,558z
	 M534.6,565L534.6,565z"/>
<path class="st5" d="M348.3,683.2l-20.9-68.3H342l14.4,48h0.2l14.6-48h14.7l-21.5,68.3H348.3L348.3,683.2z M347.6,684.2l-21.5-70.3
	h16.7l13.7,45.8l13.9-45.8h16.8l-22.1,70.3H347.6L347.6,684.2z M328.8,615.9l20.3,66.3h14.6l20.8-66.3h-12.6l-14.6,48h-1.7l-14.4-48
	H328.8L328.8,615.9z M444.4,614.9v12.6h-34.1v14.6h31.3v11.7h-31.3v16.7h34.8v12.6h-49v-68.3L444.4,614.9L444.4,614.9z M446.2,684.2
	h-51v-70.3h50.3v14.6h-34.1v12.6h31.3v13.7h-31.3v14.7h34.8L446.2,684.2L446.2,684.2z M397.1,682.2h47v-10.6h-34.8v-18.7h31.3v-9.7
	h-31.3v-16.6h34.1V616h-46.3L397.1,682.2L397.1,682.2z M497.8,682.7c-3.1,1.4-6.2,2.1-9.3,2.1c-4.9,0-9.4-0.9-13.3-2.7
	c-4-1.8-7.3-4.3-10-7.5s-4.8-6.9-6.2-11.2s-2.2-8.9-2.2-13.9s0.7-9.8,2.2-14.2s3.5-8.2,6.2-11.4s6-5.8,10-7.7
	c3.9-1.8,8.4-2.8,13.3-2.8c3.3,0,6.5,0.5,9.6,1.6c3.1,1,5.9,2.6,8.4,4.6s4.6,4.6,6.2,7.5c1.6,3,2.6,6.4,3,10.3h-13.6
	c-0.9-3.8-2.5-6.7-4.9-8.6c-2.4-1.9-5.3-2.9-8.8-2.9c-3.2,0-5.9,0.7-8.1,2s-4,3.1-5.4,5.3s-2.4,4.7-3,7.5s-1,5.7-1,8.7
	s0.3,5.7,1,8.4c0.6,2.7,1.6,5.2,3,7.3c1.4,2.2,3.2,3.9,5.4,5.2c2.2,1.3,4.9,2,8.1,2c4.7,0,8.3-1.3,10.9-3.8s4-6.2,4.5-11h-14.3
	v-11.2h27.1v36.9h-9l-1.4-7.8C503.7,678.9,500.9,681.3,497.8,682.7L497.8,682.7z M488.5,685.8c-5.1,0-9.7-1-13.8-2.8
	c-4.1-1.8-7.5-4.5-10.3-7.8s-5-7.2-6.4-11.6c-1.5-4.4-2.2-9.2-2.2-14.2s0.8-10,2.2-14.5c1.5-4.4,3.6-8.4,6.4-11.8
	c2.8-3.3,6.3-6,10.3-7.9s8.7-2.9,13.8-2.9c3.4,0,6.8,0.5,10,1.6s6.1,2.7,8.7,4.8s4.7,4.7,6.4,7.8s2.7,6.7,3.1,10.7l0.1,1.1h-15.5
	l-0.2-0.8c-0.8-3.6-2.3-6.3-4.5-8c-2.3-1.8-4.9-2.7-8.2-2.7c-3,0-5.6,0.6-7.6,1.8c-2.1,1.2-3.8,2.9-5.1,4.9
	c-1.3,2.1-2.3,4.5-2.9,7.2s-0.9,5.6-0.9,8.5c0,2.7,0.3,5.5,0.9,8.2c0.6,2.6,1.6,4.9,2.9,7c1.3,2,3,3.7,5.1,4.9s4.6,1.8,7.6,1.8
	c4.4,0,7.8-1.2,10.2-3.5c2.2-2.1,3.5-5.2,4.1-9.2h-14.2v-13.2h29.2v38.9h-10.9l-1.2-6.4c-2.3,2.7-4.8,4.6-7.5,5.8l0,0
	C495,685,491.7,685.7,488.5,685.8L488.5,685.8z M488.5,614.3c-4.8,0-9.1,0.9-12.9,2.7s-7,4.3-9.7,7.4c-2.6,3.2-4.7,6.9-6.1,11.1
	c-1.4,4.3-2.1,8.9-2.1,13.9s0.7,9.4,2.1,13.6c1.4,4.2,3.4,7.8,6,10.9c2.6,3.1,5.9,5.5,9.7,7.2c3.8,1.7,8.1,2.6,12.9,2.6
	c3,0,6-0.7,8.9-2l0,0c2.9-1.3,5.6-3.6,8-6.9l1.4-1.8l1.7,9.2h7.2v-34.9h-25.1v9.2H505l-0.1,1.1c-0.5,5-2.1,8.9-4.8,11.6
	c-2.8,2.7-6.7,4.1-11.6,4.1c-3.4,0-6.3-0.7-8.7-2.1c-2.4-1.4-4.3-3.2-5.8-5.5s-2.5-4.8-3.2-7.6c-0.6-2.8-1-5.7-1-8.6
	c0-3,0.3-6,1-8.9c0.6-2.9,1.7-5.5,3.2-7.8s3.4-4.2,5.8-5.6c2.4-1.4,5.3-2.1,8.7-2.1c3.6,0,6.8,1,9.4,3.1c2.4,1.9,4.1,4.7,5.1,8.4
	h11.7c-0.4-3.3-1.3-6.3-2.8-8.8c-1.6-2.9-3.6-5.3-6-7.2c-2.4-2-5.1-3.5-8.1-4.5C494.8,614.9,491.7,614.3,488.5,614.3L488.5,614.3z
	 M565.2,614.9l24.2,68.3h-14.8l-4.9-15.2h-24.2l-5.1,15.2h-14.3l24.4-68.3H565.2z M566.1,656.8l-8.2-25h-0.2l-8.4,25H566.1z
	 M590.8,684.2h-16.9L569,669h-22.7l-5.1,15.2h-16.4l25.2-70.3h16L590.8,684.2L590.8,684.2z M575.4,682.2H588l-23.5-66.3h-13.2
	l-23.7,66.3h12.2l5.1-15.2h25.6L575.4,682.2L575.4,682.2z M567.4,657.8h-19.5l9.1-27h1.6L567.4,657.8L567.4,657.8z M550.7,655.8h14
	l-6.9-21.1L550.7,655.8L550.7,655.8z M610.7,666.4c0.8,1.6,1.8,2.9,3.1,3.9s2.8,1.7,4.6,2.2c1.7,0.5,3.5,0.7,5.4,0.7
	c1.3,0,2.6-0.1,4.1-0.3c1.4-0.2,2.8-0.7,4.1-1.3s2.3-1.5,3.2-2.6c0.8-1.1,1.3-2.5,1.3-4.3s-0.6-3.3-1.7-4.5
	c-1.1-1.2-2.6-2.1-4.4-2.9s-3.9-1.4-6.2-2s-4.6-1.2-7-1.9c-2.4-0.6-4.8-1.4-7.1-2.3c-2.3-0.9-4.3-2.1-6.1-3.6s-3.3-3.3-4.4-5.5
	s-1.7-4.9-1.7-8c0-3.5,0.7-6.5,2.1-9.1c1.4-2.6,3.3-4.7,5.6-6.5c2.3-1.7,4.9-3,7.8-3.8c2.9-0.8,5.8-1.2,8.7-1.2
	c3.4,0,6.6,0.4,9.7,1.2s5.9,2.1,8.3,3.9c2.4,1.8,4.3,4.1,5.7,6.8c1.4,2.8,2.1,6.1,2.1,10.1h-13.8c-0.1-2-0.5-3.7-1.2-5.1
	c-0.7-1.3-1.6-2.4-2.8-3.2s-2.5-1.3-3.9-1.6c-1.5-0.3-3.1-0.5-4.8-0.5c-1.2,0-2.3,0.1-3.5,0.4s-2.2,0.7-3.1,1.3s-1.7,1.4-2.3,2.4
	s-0.9,2.2-0.9,3.6c0,1.3,0.2,2.4,0.7,3.2s1.4,1.6,2.8,2.3c1.4,0.7,3.4,1.4,5.9,2.1c2.5,0.7,5.8,1.6,9.8,2.7c1.2,0.2,2.9,0.7,5,1.4
	c2.2,0.7,4.3,1.7,6.4,3.2c2.1,1.5,3.9,3.4,5.5,5.9c1.5,2.5,2.3,5.6,2.3,9.4c0,3.1-0.6,6-1.7,8.7c-1.2,2.7-2.8,5-5.1,6.9
	c-2.2,2-5.1,3.5-8.4,4.5c-3.3,1.1-7.2,1.6-11.6,1.6c-3.5,0-7-0.5-10.4-1.4c-3.3-0.9-6.3-2.4-8.9-4.4c-2.6-2-4.6-4.5-6.1-7.5
	c-1.5-3.1-2.2-6.7-2.2-10.9h13.8C609.5,662.9,609.9,664.8,610.7,666.4z M623.2,685.7c-3.6,0-7.2-0.5-10.6-1.4
	c-3.5-1-6.6-2.5-9.2-4.5c-2.7-2.1-4.8-4.7-6.4-7.9c-1.6-3.2-2.3-6.9-2.3-11.4v-1h15.7v1c0,2.2,0.4,4,1.1,5.4l0,0
	c0.7,1.4,1.7,2.6,2.8,3.5c1.2,0.9,2.6,1.6,4.2,2c2.8,0.8,5.7,0.9,9.1,0.4c1.4-0.2,2.7-0.6,3.8-1.2s2-1.3,2.8-2.3
	c0.7-0.9,1.1-2.1,1.1-3.6c0-1.6-0.5-2.8-1.4-3.8c-1-1.1-2.4-1.9-4.1-2.7c-1.8-0.7-3.7-1.4-6-2s-4.7-1.2-7-1.9
	c-2.4-0.6-4.8-1.5-7.2-2.4c-2.4-1-4.6-2.2-6.4-3.8c-1.9-1.5-3.5-3.5-4.6-5.8c-1.2-2.3-1.8-5.2-1.8-8.4c0-3.7,0.8-6.9,2.2-9.6
	c1.5-2.7,3.5-5,5.8-6.8s5.1-3.1,8.1-4c6.6-1.9,13-1.6,18.9-0.1c3.2,0.8,6.1,2.2,8.6,4c2.5,1.9,4.5,4.3,6,7.2s2.2,6.4,2.2,10.5v1
	h-15.7l-0.1-0.9c-0.1-1.9-0.5-3.5-1.1-4.7s-1.4-2.1-2.4-2.8s-2.2-1.2-3.6-1.5c-1.4-0.3-2.9-0.5-4.6-0.5c-1.1,0-2.2,0.1-3.2,0.4
	c-1,0.2-2,0.6-2.8,1.2c-0.8,0.6-1.5,1.3-2,2.1s-0.7,1.8-0.7,3.1c0,1.2,0.2,2.1,0.6,2.7s1.2,1.3,2.4,1.9c1.5,0.7,3.4,1.4,5.7,2
	c2.5,0.7,5.8,1.6,9.8,2.7c1.1,0.2,2.8,0.7,5.1,1.4c2.2,0.7,4.5,1.8,6.7,3.3s4.1,3.6,5.8,6.2c1.6,2.6,2.5,6,2.5,10
	c0,3.2-0.6,6.3-1.8,9.1s-3,5.3-5.4,7.3c-2.3,2-5.3,3.6-8.8,4.7C631.7,685.1,627.7,685.7,623.2,685.7L623.2,685.7z M596.7,661.5
	c0.1,3.7,0.7,6.8,2.1,9.5c1.4,2.9,3.4,5.3,5.8,7.2c2.5,1.9,5.3,3.3,8.5,4.2c3.3,0.9,6.7,1.3,10.1,1.3c4.3,0,8.1-0.5,11.3-1.6
	c3.2-1,6-2.5,8.1-4.3s3.8-4,4.9-6.6c1.1-2.5,1.6-5.3,1.6-8.3c0-3.6-0.7-6.6-2.2-8.9c-1.5-2.3-3.2-4.2-5.2-5.6
	c-2-1.4-4.1-2.4-6.1-3.1c-2.2-0.7-3.8-1.1-4.9-1.4c-4.1-1.1-7.4-2-9.9-2.7c-2.4-0.7-4.5-1.4-6-2.2c-1.6-0.8-2.7-1.7-3.3-2.7
	s-0.9-2.2-0.9-3.8c0-1.7,0.3-3,1-4.2c0.7-1.1,1.5-2,2.6-2.7c1-0.7,2.2-1.2,3.5-1.5c1.2-0.3,2.5-0.4,3.7-0.4c1.9,0,3.5,0.2,5.1,0.5
	s3,0.9,4.3,1.8c1.3,0.9,2.3,2,3.1,3.5c0.7,1.2,1.1,2.7,1.2,4.5h11.8c-0.1-3.4-0.8-6.3-2-8.6c-1.4-2.7-3.1-4.8-5.4-6.5s-5-3-7.9-3.7
	c-5.5-1.4-11.7-1.7-17.9,0c-2.8,0.8-5.3,2-7.5,3.7c-2.2,1.6-3.9,3.7-5.3,6.1c-1.3,2.4-2,5.3-2,8.7c0,3,0.5,5.5,1.6,7.5
	c1,2.1,2.4,3.8,4.1,5.2c1.7,1.4,3.7,2.5,5.9,3.4s4.6,1.7,6.9,2.3c2.3,0.7,4.7,1.3,7,1.9c2.4,0.6,4.5,1.3,6.3,2
	c1.9,0.8,3.5,1.9,4.7,3.1c1.3,1.3,2,3.1,2,5.2c0,1.9-0.5,3.6-1.5,4.9c-1,1.2-2.2,2.2-3.5,2.9s-2.8,1.1-4.4,1.4
	c-3.6,0.6-6.9,0.4-9.9-0.4c-1.9-0.5-3.5-1.3-4.9-2.4c-1.4-1.1-2.6-2.5-3.4-4.2l0,0c-0.7-1.5-1.2-3.2-1.3-5.3L596.7,661.5
	L596.7,661.5z"/>
<path class="st6" d="M451.1,348.5l-111.8-23.8l24-45.3c0.9-1.4-0.9-2.8-1.9-1.9l-45.3,24l-23.8-111.8c-0.3-1.6-2.5-1.6-2.8,0
	l-23.8,111.8l-45.3-24c-1.4-0.9-2.8,0.9-1.9,1.9l24.1,45.3l-111.8,23.8c-1.6,0.3-1.6,2.5,0,2.8l111.8,23.8l-24.1,45.3
	c-0.9,1.4,0.9,2.8,1.9,1.9l45.3-24l23.8,111.8c0.3,1.6,2.5,1.6,2.8,0l23.8-111.8l45.3,24c1.4,0.9,2.8-0.9,1.9-1.9l-24-45.3
	l111.8-23.8C452.8,351.1,452.8,348.8,451.1,348.5z"/>
<path class="st7" d="M291.2,196.5V350l20.1-43.9L291.2,196.5L291.2,196.5z M444.7,350H291.2l43.5,20.1L444.7,350z M358.8,283.2
	L291.2,350l45.6-26.3L358.8,283.2L358.8,283.2z M224.4,282l66.8,68l-26.6-45.9L224.4,282L224.4,282z M358.1,417.9L291.2,350
	l26.3,45.8L358.1,417.9z M291.2,503.4V350L271,393.5L291.2,503.4L291.2,503.4z M137.7,350h153.5l-43.9-20.2L137.7,350z M223.3,416.8
	l68-66.8l-45.9,26.3L223.3,416.8z"/>
<path class="st8" d="M280.3,395.8c38.5,0,69.6,31.2,69.6,69.6S318.8,535,280.3,535s-69.6-31.2-69.6-69.6S241.8,395.8,280.3,395.8
	L280.3,395.8z M724,395.8c38.5,0,69.6,31.2,69.6,69.6S762.4,535,724,535s-69.6-31.2-69.6-69.6S685.5,395.8,724,395.8L724,395.8z
	 M576.1,395.8c38.5,0,69.6,31.2,69.6,69.6S614.5,535,576.1,535s-69.6-31.2-69.6-69.6S537.6,395.8,576.1,395.8L576.1,395.8z
	 M428.2,395.8c38.5,0,69.6,31.2,69.6,69.6S466.6,535,428.2,535s-69.6-31.2-69.6-69.6S389.7,395.8,428.2,395.8L428.2,395.8z"/>
<path class="st9" d="M280.3,413.7c28.5,0,51.7,23.1,51.7,51.7s-23.1,51.7-51.7,51.7s-51.7-23.1-51.7-51.7S251.8,413.7,280.3,413.7
	L280.3,413.7z M724,413.7c28.5,0,51.7,23.1,51.7,51.7s-23.1,51.7-51.7,51.7s-51.7-23.1-51.7-51.7S695.4,413.7,724,413.7L724,413.7z
	 M576.1,413.7c28.5,0,51.7,23.1,51.7,51.7s-23.1,51.7-51.7,51.7s-51.7-23.1-51.7-51.7S547.5,413.7,576.1,413.7L576.1,413.7z
	 M428.2,413.7c28.5,0,51.7,23.1,51.7,51.7s-23.1,51.7-51.7,51.7s-51.7-23.1-51.7-51.7S399.6,413.7,428.2,413.7L428.2,413.7z"/>
<path class="st10" d="M295.3,449.9c-0.9-1.4-1.9-2.5-3.2-3.6c-1.3-1-2.7-1.8-4.3-2.4c-1.6-0.6-3.3-0.9-5-0.9c-3.2,0-5.9,0.6-8.1,1.9
	s-4,2.9-5.4,5s-2.4,4.5-3,7.1c-0.6,2.7-1,5.4-1,8.2s0.3,5.4,1,7.9c0.6,2.6,1.6,4.9,3,6.9s3.2,3.7,5.4,4.9c2.2,1.2,5,1.9,8.1,1.9
	c4.3,0,7.7-1.3,10.2-4c2.4-2.6,3.9-6.1,4.5-10.5h13.8c-0.4,4-1.3,7.7-2.8,11s-3.5,6-6,8.3s-5.4,4-8.7,5.2s-7,1.8-11,1.8
	c-5,0-9.4-0.9-13.4-2.6s-7.3-4.1-10-7.1s-4.8-6.6-6.2-10.6c-1.4-4.1-2.2-8.5-2.2-13.2s0.7-9.3,2.2-13.4s3.5-7.7,6.2-10.8
	c2.7-3.1,6-5.5,10-7.2s8.4-2.6,13.4-2.6c3.6,0,6.9,0.5,10.1,1.5s6,2.5,8.5,4.5s4.6,4.4,6.2,7.3s2.6,6.2,3.1,10h-13.8
	C296.7,452.8,296.1,451.3,295.3,449.9L295.3,449.9z M398.3,453.2c1.5-4.1,3.5-7.7,6.2-10.8c2.7-3.1,6-5.5,10-7.2s8.4-2.6,13.4-2.6
	s9.5,0.9,13.4,2.6c3.9,1.8,7.2,4.2,10,7.2c2.7,3.1,4.8,6.7,6.2,10.8c1.5,4.1,2.2,8.6,2.2,13.4s-0.7,9.1-2.2,13.2s-3.5,7.6-6.2,10.6
	s-6,5.4-10,7.1s-8.4,2.6-13.4,2.6s-9.4-0.9-13.4-2.6s-7.3-4.1-10-7.1s-4.8-6.6-6.2-10.6c-1.5-4.1-2.2-8.5-2.2-13.2
	S396.8,457.4,398.3,453.2z M411.3,474.6c0.6,2.6,1.6,4.9,3,6.9s3.2,3.7,5.4,4.9c2.2,1.2,5,1.9,8.1,1.9s5.9-0.6,8.1-1.9
	s4-2.9,5.4-4.9s2.4-4.4,3-6.9c0.6-2.6,1-5.2,1-7.9s-0.3-5.6-1-8.2c-0.6-2.6-1.6-5-3-7.1s-3.2-3.7-5.4-5c-2.2-1.2-5-1.9-8.1-1.9
	s-5.9,0.6-8.1,1.9s-4,2.9-5.4,5s-2.4,4.5-3,7.1c-0.6,2.7-1,5.4-1,8.2S410.7,472,411.3,474.6z M580.9,432.7c4.2,0,8,0.7,11.6,2
	s6.7,3.3,9.3,6s4.7,6,6.2,10s2.2,8.7,2.2,14c0,4.7-0.6,9-1.8,13s-3,7.4-5.5,10.3s-5.5,5.2-9.1,6.8c-3.7,1.7-8,2.5-12.9,2.5H553
	v-64.6L580.9,432.7L580.9,432.7z M579.9,485.3c2,0,4-0.3,6-1c1.9-0.7,3.7-1.8,5.2-3.3s2.7-3.5,3.6-6c0.9-2.5,1.4-5.5,1.4-9
	c0-3.3-0.3-6.2-1-8.8s-1.7-4.9-3.1-6.7s-3.4-3.3-5.8-4.3c-2.4-1-5.3-1.5-8.8-1.5h-10.1v40.7L579.9,485.3L579.9,485.3z M746.8,432.7
	v12h-34.1v13.8H744v11h-31.3v15.8h34.8v11.9h-49v-64.6h48.3V432.7z"/>
</svg>
